%TF.GenerationSoftware,KiCad,Pcbnew,9.0.2-9.0.2-0~ubuntu24.04.1*%
%TF.CreationDate,2025-06-09T17:33:14+05:30*%
%TF.ProjectId,pronto,70726f6e-746f-42e6-9b69-6361645f7063,rev1*%
%TF.SameCoordinates,Original*%
%TF.FileFunction,Copper,L2,Bot*%
%TF.FilePolarity,Positive*%
%FSLAX46Y46*%
G04 Gerber Fmt 4.6, Leading zero omitted, Abs format (unit mm)*
G04 Created by KiCad (PCBNEW 9.0.2-9.0.2-0~ubuntu24.04.1) date 2025-06-09 17:33:14*
%MOMM*%
%LPD*%
G01*
G04 APERTURE LIST*
G04 Aperture macros list*
%AMOutline5P*
0 Free polygon, 5 corners , with rotation*
0 The origin of the aperture is its center*
0 number of corners: always 5*
0 $1 to $10 corner X, Y*
0 $11 Rotation angle, in degrees counterclockwise*
0 create outline with 5 corners*
4,1,5,$1,$2,$3,$4,$5,$6,$7,$8,$9,$10,$1,$2,$11*%
%AMOutline6P*
0 Free polygon, 6 corners , with rotation*
0 The origin of the aperture is its center*
0 number of corners: always 6*
0 $1 to $12 corner X, Y*
0 $13 Rotation angle, in degrees counterclockwise*
0 create outline with 6 corners*
4,1,6,$1,$2,$3,$4,$5,$6,$7,$8,$9,$10,$11,$12,$1,$2,$13*%
%AMOutline7P*
0 Free polygon, 7 corners , with rotation*
0 The origin of the aperture is its center*
0 number of corners: always 7*
0 $1 to $14 corner X, Y*
0 $15 Rotation angle, in degrees counterclockwise*
0 create outline with 7 corners*
4,1,7,$1,$2,$3,$4,$5,$6,$7,$8,$9,$10,$11,$12,$13,$14,$1,$2,$15*%
%AMOutline8P*
0 Free polygon, 8 corners , with rotation*
0 The origin of the aperture is its center*
0 number of corners: always 8*
0 $1 to $16 corner X, Y*
0 $17 Rotation angle, in degrees counterclockwise*
0 create outline with 8 corners*
4,1,8,$1,$2,$3,$4,$5,$6,$7,$8,$9,$10,$11,$12,$13,$14,$15,$16,$1,$2,$17*%
G04 Aperture macros list end*
%TA.AperFunction,ComponentPad*%
%ADD10C,1.778000*%
%TD*%
%TA.AperFunction,ComponentPad*%
%ADD11Outline8P,-1.016000X0.406400X-0.406400X1.016000X0.406400X1.016000X1.016000X0.406400X1.016000X-0.406400X0.406400X-1.016000X-0.406400X-1.016000X-1.016000X-0.406400X0.000000*%
%TD*%
%TA.AperFunction,ComponentPad*%
%ADD12Outline8P,-1.016000X0.406400X-0.406400X1.016000X0.406400X1.016000X1.016000X0.406400X1.016000X-0.406400X0.406400X-1.016000X-0.406400X-1.016000X-1.016000X-0.406400X180.000000*%
%TD*%
%TA.AperFunction,Conductor*%
%ADD13C,0.508000*%
%TD*%
%TA.AperFunction,Profile*%
%ADD14C,0.100000*%
%TD*%
G04 APERTURE END LIST*
D10*
%TO.P,1pin,1*%
%TO.N,N/C*%
X114300000Y-38100000D03*
%TD*%
%TO.P,1pin,1*%
%TO.N,N/C*%
X132080000Y-38100000D03*
%TD*%
%TO.P,1pin,1*%
%TO.N,N/C*%
X127000000Y-38100000D03*
%TD*%
%TO.P,1pin,1*%
%TO.N,N/C*%
X106680000Y-38100000D03*
%TD*%
%TO.P,1pin,1*%
%TO.N,N/C*%
X121920000Y-38100000D03*
%TD*%
%TO.P,1pin,1*%
%TO.N,N/C*%
X111760000Y-38100000D03*
%TD*%
%TO.P,1pin,1*%
%TO.N,N/C*%
X129540000Y-38100000D03*
%TD*%
%TO.P,1pin,1*%
%TO.N,N/C*%
X124460000Y-38100000D03*
%TD*%
%TO.P,1pin,1*%
%TO.N,N/C*%
X109220000Y-38100000D03*
%TD*%
%TO.P,1pin,1*%
%TO.N,N/C*%
X104140000Y-38100000D03*
%TD*%
%TO.P,1pin,1*%
%TO.N,N/C*%
X106680000Y-40640000D03*
%TD*%
%TO.P,1pin,1*%
%TO.N,N/C*%
X104140000Y-40640000D03*
%TD*%
%TO.P,1pin,1*%
%TO.N,N/C*%
X109220000Y-40640000D03*
%TD*%
%TO.P,1pin,1*%
%TO.N,N/C*%
X111760000Y-40640000D03*
%TD*%
%TO.P,1pin,1*%
%TO.N,N/C*%
X114300000Y-40640000D03*
%TD*%
%TO.P,1pin,1*%
%TO.N,N/C*%
X121920000Y-40640000D03*
%TD*%
%TO.P,1pin,1*%
%TO.N,N/C*%
X124460000Y-40640000D03*
%TD*%
%TO.P,1pin,1*%
%TO.N,N/C*%
X127000000Y-40640000D03*
%TD*%
%TO.P,1pin,1*%
%TO.N,N/C*%
X132080000Y-40640000D03*
%TD*%
%TO.P,1pin,1*%
%TO.N,N/C*%
X129540000Y-40640000D03*
%TD*%
%TO.P,1pin,1*%
%TO.N,N/C*%
X121920000Y-45720000D03*
%TD*%
%TO.P,1pin,1*%
%TO.N,N/C*%
X124460000Y-45720000D03*
%TD*%
%TO.P,1pin,1*%
%TO.N,N/C*%
X127000000Y-45720000D03*
%TD*%
%TO.P,1pin,1*%
%TO.N,N/C*%
X132080000Y-45720000D03*
%TD*%
%TO.P,1pin,1*%
%TO.N,N/C*%
X129540000Y-45720000D03*
%TD*%
%TO.P,1pin,1*%
%TO.N,N/C*%
X129540000Y-43180000D03*
%TD*%
%TO.P,1pin,1*%
%TO.N,N/C*%
X132080000Y-43180000D03*
%TD*%
%TO.P,1pin,1*%
%TO.N,N/C*%
X127000000Y-43180000D03*
%TD*%
%TO.P,1pin,1*%
%TO.N,N/C*%
X124460000Y-43180000D03*
%TD*%
%TO.P,1pin,1*%
%TO.N,N/C*%
X121920000Y-43180000D03*
%TD*%
%TO.P,1pin,1*%
%TO.N,N/C*%
X114300000Y-43180000D03*
%TD*%
%TO.P,1pin,1*%
%TO.N,N/C*%
X111760000Y-43180000D03*
%TD*%
%TO.P,1pin,1*%
%TO.N,N/C*%
X109220000Y-43180000D03*
%TD*%
%TO.P,1pin,1*%
%TO.N,N/C*%
X104140000Y-43180000D03*
%TD*%
%TO.P,1pin,1*%
%TO.N,N/C*%
X106680000Y-43180000D03*
%TD*%
%TO.P,1pin,1*%
%TO.N,N/C*%
X106680000Y-45720000D03*
%TD*%
%TO.P,1pin,1*%
%TO.N,N/C*%
X104140000Y-45720000D03*
%TD*%
%TO.P,1pin,1*%
%TO.N,N/C*%
X109220000Y-45720000D03*
%TD*%
%TO.P,1pin,1*%
%TO.N,N/C*%
X111760000Y-45720000D03*
%TD*%
%TO.P,1pin,1*%
%TO.N,N/C*%
X114300000Y-45720000D03*
%TD*%
%TO.P,1pin,1*%
%TO.N,N/C*%
X114300000Y-50800000D03*
%TD*%
%TO.P,1pin,1*%
%TO.N,N/C*%
X111760000Y-50800000D03*
%TD*%
%TO.P,1pin,1*%
%TO.N,N/C*%
X109220000Y-50800000D03*
%TD*%
%TO.P,1pin,1*%
%TO.N,N/C*%
X104140000Y-50800000D03*
%TD*%
%TO.P,1pin,1*%
%TO.N,N/C*%
X106680000Y-50800000D03*
%TD*%
%TO.P,1pin,1*%
%TO.N,N/C*%
X106680000Y-48260000D03*
%TD*%
%TO.P,1pin,1*%
%TO.N,N/C*%
X104140000Y-48260000D03*
%TD*%
%TO.P,1pin,1*%
%TO.N,N/C*%
X109220000Y-48260000D03*
%TD*%
%TO.P,1pin,1*%
%TO.N,N/C*%
X111760000Y-48260000D03*
%TD*%
%TO.P,1pin,1*%
%TO.N,N/C*%
X114300000Y-48260000D03*
%TD*%
%TO.P,1pin,1*%
%TO.N,N/C*%
X114300000Y-58420000D03*
%TD*%
%TO.P,1pin,1*%
%TO.N,N/C*%
X111760000Y-58420000D03*
%TD*%
%TO.P,1pin,1*%
%TO.N,N/C*%
X109220000Y-58420000D03*
%TD*%
%TO.P,1pin,1*%
%TO.N,N/C*%
X104140000Y-58420000D03*
%TD*%
%TO.P,1pin,1*%
%TO.N,N/C*%
X106680000Y-58420000D03*
%TD*%
%TO.P,1pin,1*%
%TO.N,N/C*%
X106680000Y-60960000D03*
%TD*%
%TO.P,1pin,1*%
%TO.N,N/C*%
X104140000Y-60960000D03*
%TD*%
%TO.P,1pin,1*%
%TO.N,N/C*%
X109220000Y-60960000D03*
%TD*%
%TO.P,1pin,1*%
%TO.N,N/C*%
X111760000Y-60960000D03*
%TD*%
%TO.P,1pin,1*%
%TO.N,N/C*%
X114300000Y-60960000D03*
%TD*%
%TO.P,1pin,1*%
%TO.N,N/C*%
X114300000Y-55880000D03*
%TD*%
%TO.P,1pin,1*%
%TO.N,N/C*%
X111760000Y-55880000D03*
%TD*%
%TO.P,1pin,1*%
%TO.N,N/C*%
X109220000Y-55880000D03*
%TD*%
%TO.P,1pin,1*%
%TO.N,N/C*%
X104140000Y-55880000D03*
%TD*%
%TO.P,1pin,1*%
%TO.N,N/C*%
X106680000Y-55880000D03*
%TD*%
%TO.P,1pin,1*%
%TO.N,N/C*%
X106680000Y-53340000D03*
%TD*%
%TO.P,1pin,1*%
%TO.N,N/C*%
X104140000Y-53340000D03*
%TD*%
%TO.P,1pin,1*%
%TO.N,N/C*%
X109220000Y-53340000D03*
%TD*%
%TO.P,1pin,1*%
%TO.N,N/C*%
X111760000Y-53340000D03*
%TD*%
%TO.P,1pin,1*%
%TO.N,N/C*%
X114300000Y-53340000D03*
%TD*%
%TO.P,1pin,1*%
%TO.N,N/C*%
X114300000Y-73660000D03*
%TD*%
%TO.P,1pin,1*%
%TO.N,N/C*%
X111760000Y-73660000D03*
%TD*%
%TO.P,1pin,1*%
%TO.N,N/C*%
X109220000Y-73660000D03*
%TD*%
%TO.P,1pin,1*%
%TO.N,N/C*%
X104140000Y-73660000D03*
%TD*%
%TO.P,1pin,1*%
%TO.N,N/C*%
X106680000Y-73660000D03*
%TD*%
%TO.P,1pin,1*%
%TO.N,N/C*%
X106680000Y-76200000D03*
%TD*%
%TO.P,1pin,1*%
%TO.N,N/C*%
X104140000Y-76200000D03*
%TD*%
%TO.P,1pin,1*%
%TO.N,N/C*%
X109220000Y-76200000D03*
%TD*%
%TO.P,1pin,1*%
%TO.N,N/C*%
X111760000Y-76200000D03*
%TD*%
%TO.P,1pin,1*%
%TO.N,N/C*%
X114300000Y-76200000D03*
%TD*%
%TO.P,1pin,1*%
%TO.N,N/C*%
X114300000Y-81280000D03*
%TD*%
%TO.P,1pin,1*%
%TO.N,N/C*%
X111760000Y-81280000D03*
%TD*%
%TO.P,1pin,1*%
%TO.N,N/C*%
X109220000Y-81280000D03*
%TD*%
%TO.P,1pin,1*%
%TO.N,N/C*%
X104140000Y-81280000D03*
%TD*%
%TO.P,1pin,1*%
%TO.N,N/C*%
X106680000Y-81280000D03*
%TD*%
%TO.P,1pin,1*%
%TO.N,N/C*%
X106680000Y-78740000D03*
%TD*%
%TO.P,1pin,1*%
%TO.N,N/C*%
X104140000Y-78740000D03*
%TD*%
%TO.P,1pin,1*%
%TO.N,N/C*%
X109220000Y-78740000D03*
%TD*%
%TO.P,1pin,1*%
%TO.N,N/C*%
X111760000Y-78740000D03*
%TD*%
%TO.P,1pin,1*%
%TO.N,N/C*%
X114300000Y-78740000D03*
%TD*%
%TO.P,1pin,1*%
%TO.N,N/C*%
X114300000Y-68580000D03*
%TD*%
%TO.P,1pin,1*%
%TO.N,N/C*%
X111760000Y-68580000D03*
%TD*%
%TO.P,1pin,1*%
%TO.N,N/C*%
X109220000Y-68580000D03*
%TD*%
%TO.P,1pin,1*%
%TO.N,N/C*%
X104140000Y-68580000D03*
%TD*%
%TO.P,1pin,1*%
%TO.N,N/C*%
X106680000Y-68580000D03*
%TD*%
%TO.P,1pin,1*%
%TO.N,N/C*%
X106680000Y-71120000D03*
%TD*%
%TO.P,1pin,1*%
%TO.N,N/C*%
X104140000Y-71120000D03*
%TD*%
%TO.P,1pin,1*%
%TO.N,N/C*%
X109220000Y-71120000D03*
%TD*%
%TO.P,1pin,1*%
%TO.N,N/C*%
X111760000Y-71120000D03*
%TD*%
%TO.P,1pin,1*%
%TO.N,N/C*%
X114300000Y-71120000D03*
%TD*%
%TO.P,1pin,1*%
%TO.N,N/C*%
X114300000Y-66040000D03*
%TD*%
%TO.P,1pin,1*%
%TO.N,N/C*%
X111760000Y-66040000D03*
%TD*%
%TO.P,1pin,1*%
%TO.N,N/C*%
X109220000Y-66040000D03*
%TD*%
%TO.P,1pin,1*%
%TO.N,N/C*%
X104140000Y-66040000D03*
%TD*%
%TO.P,1pin,1*%
%TO.N,N/C*%
X106680000Y-66040000D03*
%TD*%
%TO.P,1pin,1*%
%TO.N,N/C*%
X106680000Y-63500000D03*
%TD*%
%TO.P,1pin,1*%
%TO.N,N/C*%
X104140000Y-63500000D03*
%TD*%
%TO.P,1pin,1*%
%TO.N,N/C*%
X109220000Y-63500000D03*
%TD*%
%TO.P,1pin,1*%
%TO.N,N/C*%
X111760000Y-63500000D03*
%TD*%
%TO.P,1pin,1*%
%TO.N,N/C*%
X114300000Y-63500000D03*
%TD*%
%TO.P,1pin,1*%
%TO.N,N/C*%
X114300000Y-104140000D03*
%TD*%
%TO.P,1pin,1*%
%TO.N,N/C*%
X111760000Y-104140000D03*
%TD*%
%TO.P,1pin,1*%
%TO.N,N/C*%
X109220000Y-104140000D03*
%TD*%
%TO.P,1pin,1*%
%TO.N,N/C*%
X104140000Y-104140000D03*
%TD*%
%TO.P,1pin,1*%
%TO.N,N/C*%
X106680000Y-104140000D03*
%TD*%
%TO.P,1pin,1*%
%TO.N,N/C*%
X106680000Y-106680000D03*
%TD*%
%TO.P,1pin,1*%
%TO.N,N/C*%
X104140000Y-106680000D03*
%TD*%
%TO.P,1pin,1*%
%TO.N,N/C*%
X109220000Y-106680000D03*
%TD*%
%TO.P,1pin,1*%
%TO.N,N/C*%
X111760000Y-106680000D03*
%TD*%
%TO.P,1pin,1*%
%TO.N,N/C*%
X114300000Y-106680000D03*
%TD*%
%TO.P,1pin,1*%
%TO.N,N/C*%
X114300000Y-111760000D03*
%TD*%
%TO.P,1pin,1*%
%TO.N,N/C*%
X111760000Y-111760000D03*
%TD*%
%TO.P,1pin,1*%
%TO.N,N/C*%
X109220000Y-111760000D03*
%TD*%
%TO.P,1pin,1*%
%TO.N,N/C*%
X104140000Y-111760000D03*
%TD*%
%TO.P,1pin,1*%
%TO.N,N/C*%
X106680000Y-111760000D03*
%TD*%
%TO.P,1pin,1*%
%TO.N,N/C*%
X106680000Y-109220000D03*
%TD*%
%TO.P,1pin,1*%
%TO.N,N/C*%
X104140000Y-109220000D03*
%TD*%
%TO.P,1pin,1*%
%TO.N,N/C*%
X109220000Y-109220000D03*
%TD*%
%TO.P,1pin,1*%
%TO.N,N/C*%
X111760000Y-109220000D03*
%TD*%
%TO.P,1pin,1*%
%TO.N,N/C*%
X114300000Y-109220000D03*
%TD*%
%TO.P,1pin,1*%
%TO.N,N/C*%
X114300000Y-116840000D03*
%TD*%
%TO.P,1pin,1*%
%TO.N,N/C*%
X111760000Y-116840000D03*
%TD*%
%TO.P,1pin,1*%
%TO.N,N/C*%
X109220000Y-116840000D03*
%TD*%
%TO.P,1pin,1*%
%TO.N,N/C*%
X104140000Y-116840000D03*
%TD*%
%TO.P,1pin,1*%
%TO.N,N/C*%
X106680000Y-116840000D03*
%TD*%
%TO.P,1pin,1*%
%TO.N,N/C*%
X106680000Y-114300000D03*
%TD*%
%TO.P,1pin,1*%
%TO.N,N/C*%
X104140000Y-114300000D03*
%TD*%
%TO.P,1pin,1*%
%TO.N,N/C*%
X109220000Y-114300000D03*
%TD*%
%TO.P,1pin,1*%
%TO.N,N/C*%
X111760000Y-114300000D03*
%TD*%
%TO.P,1pin,1*%
%TO.N,N/C*%
X114300000Y-114300000D03*
%TD*%
%TO.P,1pin,1*%
%TO.N,N/C*%
X114300000Y-93980000D03*
%TD*%
%TO.P,1pin,1*%
%TO.N,N/C*%
X111760000Y-93980000D03*
%TD*%
%TO.P,1pin,1*%
%TO.N,N/C*%
X109220000Y-93980000D03*
%TD*%
%TO.P,1pin,1*%
%TO.N,N/C*%
X104140000Y-93980000D03*
%TD*%
%TO.P,1pin,1*%
%TO.N,N/C*%
X106680000Y-93980000D03*
%TD*%
%TO.P,1pin,1*%
%TO.N,N/C*%
X106680000Y-96520000D03*
%TD*%
%TO.P,1pin,1*%
%TO.N,N/C*%
X104140000Y-96520000D03*
%TD*%
%TO.P,1pin,1*%
%TO.N,N/C*%
X109220000Y-96520000D03*
%TD*%
%TO.P,1pin,1*%
%TO.N,N/C*%
X111760000Y-96520000D03*
%TD*%
%TO.P,1pin,1*%
%TO.N,N/C*%
X114300000Y-96520000D03*
%TD*%
%TO.P,1pin,1*%
%TO.N,N/C*%
X114300000Y-101600000D03*
%TD*%
%TO.P,1pin,1*%
%TO.N,N/C*%
X111760000Y-101600000D03*
%TD*%
%TO.P,1pin,1*%
%TO.N,N/C*%
X109220000Y-101600000D03*
%TD*%
%TO.P,1pin,1*%
%TO.N,N/C*%
X104140000Y-101600000D03*
%TD*%
%TO.P,1pin,1*%
%TO.N,N/C*%
X106680000Y-101600000D03*
%TD*%
%TO.P,1pin,1*%
%TO.N,N/C*%
X106680000Y-99060000D03*
%TD*%
%TO.P,1pin,1*%
%TO.N,N/C*%
X104140000Y-99060000D03*
%TD*%
%TO.P,1pin,1*%
%TO.N,N/C*%
X109220000Y-99060000D03*
%TD*%
%TO.P,1pin,1*%
%TO.N,N/C*%
X111760000Y-99060000D03*
%TD*%
%TO.P,1pin,1*%
%TO.N,N/C*%
X114300000Y-99060000D03*
%TD*%
%TO.P,1pin,1*%
%TO.N,N/C*%
X114300000Y-88900000D03*
%TD*%
%TO.P,1pin,1*%
%TO.N,N/C*%
X111760000Y-88900000D03*
%TD*%
%TO.P,1pin,1*%
%TO.N,N/C*%
X109220000Y-88900000D03*
%TD*%
%TO.P,1pin,1*%
%TO.N,N/C*%
X104140000Y-88900000D03*
%TD*%
%TO.P,1pin,1*%
%TO.N,N/C*%
X106680000Y-88900000D03*
%TD*%
%TO.P,1pin,1*%
%TO.N,N/C*%
X106680000Y-91440000D03*
%TD*%
%TO.P,1pin,1*%
%TO.N,N/C*%
X104140000Y-91440000D03*
%TD*%
%TO.P,1pin,1*%
%TO.N,N/C*%
X109220000Y-91440000D03*
%TD*%
%TO.P,1pin,1*%
%TO.N,N/C*%
X111760000Y-91440000D03*
%TD*%
%TO.P,1pin,1*%
%TO.N,N/C*%
X114300000Y-91440000D03*
%TD*%
%TO.P,1pin,1*%
%TO.N,N/C*%
X114300000Y-86360000D03*
%TD*%
%TO.P,1pin,1*%
%TO.N,N/C*%
X111760000Y-86360000D03*
%TD*%
%TO.P,1pin,1*%
%TO.N,N/C*%
X109220000Y-86360000D03*
%TD*%
%TO.P,1pin,1*%
%TO.N,N/C*%
X104140000Y-86360000D03*
%TD*%
%TO.P,1pin,1*%
%TO.N,N/C*%
X106680000Y-86360000D03*
%TD*%
%TO.P,1pin,1*%
%TO.N,N/C*%
X106680000Y-83820000D03*
%TD*%
%TO.P,1pin,1*%
%TO.N,N/C*%
X104140000Y-83820000D03*
%TD*%
%TO.P,1pin,1*%
%TO.N,N/C*%
X109220000Y-83820000D03*
%TD*%
%TO.P,1pin,1*%
%TO.N,N/C*%
X111760000Y-83820000D03*
%TD*%
%TO.P,1pin,1*%
%TO.N,N/C*%
X114300000Y-83820000D03*
%TD*%
%TO.P,1pin,1*%
%TO.N,N/C*%
X121920000Y-48260000D03*
%TD*%
%TO.P,1pin,1*%
%TO.N,N/C*%
X124460000Y-48260000D03*
%TD*%
%TO.P,1pin,1*%
%TO.N,N/C*%
X127000000Y-48260000D03*
%TD*%
%TO.P,1pin,1*%
%TO.N,N/C*%
X132080000Y-48260000D03*
%TD*%
%TO.P,1pin,1*%
%TO.N,N/C*%
X129540000Y-48260000D03*
%TD*%
%TO.P,1pin,1*%
%TO.N,N/C*%
X129540000Y-50800000D03*
%TD*%
%TO.P,1pin,1*%
%TO.N,N/C*%
X132080000Y-50800000D03*
%TD*%
%TO.P,1pin,1*%
%TO.N,N/C*%
X127000000Y-50800000D03*
%TD*%
%TO.P,1pin,1*%
%TO.N,N/C*%
X124460000Y-50800000D03*
%TD*%
%TO.P,1pin,1*%
%TO.N,N/C*%
X121920000Y-50800000D03*
%TD*%
%TO.P,1pin,1*%
%TO.N,N/C*%
X121920000Y-60960000D03*
%TD*%
%TO.P,1pin,1*%
%TO.N,N/C*%
X124460000Y-60960000D03*
%TD*%
%TO.P,1pin,1*%
%TO.N,N/C*%
X127000000Y-60960000D03*
%TD*%
%TO.P,1pin,1*%
%TO.N,N/C*%
X132080000Y-60960000D03*
%TD*%
%TO.P,1pin,1*%
%TO.N,N/C*%
X129540000Y-60960000D03*
%TD*%
%TO.P,1pin,1*%
%TO.N,N/C*%
X129540000Y-58420000D03*
%TD*%
%TO.P,1pin,1*%
%TO.N,N/C*%
X132080000Y-58420000D03*
%TD*%
%TO.P,1pin,1*%
%TO.N,N/C*%
X127000000Y-58420000D03*
%TD*%
%TO.P,1pin,1*%
%TO.N,N/C*%
X124460000Y-58420000D03*
%TD*%
%TO.P,1pin,1*%
%TO.N,N/C*%
X121920000Y-58420000D03*
%TD*%
%TO.P,1pin,1*%
%TO.N,N/C*%
X121920000Y-53340000D03*
%TD*%
%TO.P,1pin,1*%
%TO.N,N/C*%
X124460000Y-53340000D03*
%TD*%
%TO.P,1pin,1*%
%TO.N,N/C*%
X127000000Y-53340000D03*
%TD*%
%TO.P,1pin,1*%
%TO.N,N/C*%
X132080000Y-53340000D03*
%TD*%
%TO.P,1pin,1*%
%TO.N,N/C*%
X129540000Y-53340000D03*
%TD*%
%TO.P,1pin,1*%
%TO.N,N/C*%
X129540000Y-55880000D03*
%TD*%
%TO.P,1pin,1*%
%TO.N,N/C*%
X132080000Y-55880000D03*
%TD*%
%TO.P,1pin,1*%
%TO.N,N/C*%
X127000000Y-55880000D03*
%TD*%
%TO.P,1pin,1*%
%TO.N,N/C*%
X124460000Y-55880000D03*
%TD*%
%TO.P,1pin,1*%
%TO.N,N/C*%
X121920000Y-55880000D03*
%TD*%
%TO.P,1pin,1*%
%TO.N,N/C*%
X121920000Y-76200000D03*
%TD*%
%TO.P,1pin,1*%
%TO.N,N/C*%
X124460000Y-76200000D03*
%TD*%
%TO.P,1pin,1*%
%TO.N,N/C*%
X127000000Y-76200000D03*
%TD*%
%TO.P,1pin,1*%
%TO.N,N/C*%
X132080000Y-76200000D03*
%TD*%
%TO.P,1pin,1*%
%TO.N,N/C*%
X129540000Y-76200000D03*
%TD*%
%TO.P,1pin,1*%
%TO.N,N/C*%
X129540000Y-73660000D03*
%TD*%
%TO.P,1pin,1*%
%TO.N,N/C*%
X132080000Y-73660000D03*
%TD*%
%TO.P,1pin,1*%
%TO.N,N/C*%
X127000000Y-73660000D03*
%TD*%
%TO.P,1pin,1*%
%TO.N,N/C*%
X124460000Y-73660000D03*
%TD*%
%TO.P,1pin,1*%
%TO.N,N/C*%
X121920000Y-73660000D03*
%TD*%
%TO.P,1pin,1*%
%TO.N,N/C*%
X121920000Y-78740000D03*
%TD*%
%TO.P,1pin,1*%
%TO.N,N/C*%
X124460000Y-78740000D03*
%TD*%
%TO.P,1pin,1*%
%TO.N,N/C*%
X127000000Y-78740000D03*
%TD*%
%TO.P,1pin,1*%
%TO.N,N/C*%
X132080000Y-78740000D03*
%TD*%
%TO.P,1pin,1*%
%TO.N,N/C*%
X129540000Y-78740000D03*
%TD*%
%TO.P,1pin,1*%
%TO.N,N/C*%
X129540000Y-81280000D03*
%TD*%
%TO.P,1pin,1*%
%TO.N,N/C*%
X132080000Y-81280000D03*
%TD*%
%TO.P,1pin,1*%
%TO.N,N/C*%
X127000000Y-81280000D03*
%TD*%
%TO.P,1pin,1*%
%TO.N,N/C*%
X124460000Y-81280000D03*
%TD*%
%TO.P,1pin,1*%
%TO.N,N/C*%
X121920000Y-81280000D03*
%TD*%
%TO.P,1pin,1*%
%TO.N,N/C*%
X121920000Y-71120000D03*
%TD*%
%TO.P,1pin,1*%
%TO.N,N/C*%
X124460000Y-71120000D03*
%TD*%
%TO.P,1pin,1*%
%TO.N,N/C*%
X127000000Y-71120000D03*
%TD*%
%TO.P,1pin,1*%
%TO.N,N/C*%
X132080000Y-71120000D03*
%TD*%
%TO.P,1pin,1*%
%TO.N,N/C*%
X129540000Y-71120000D03*
%TD*%
%TO.P,1pin,1*%
%TO.N,N/C*%
X129540000Y-68580000D03*
%TD*%
%TO.P,1pin,1*%
%TO.N,N/C*%
X132080000Y-68580000D03*
%TD*%
%TO.P,1pin,1*%
%TO.N,N/C*%
X127000000Y-68580000D03*
%TD*%
%TO.P,1pin,1*%
%TO.N,N/C*%
X124460000Y-68580000D03*
%TD*%
%TO.P,1pin,1*%
%TO.N,N/C*%
X121920000Y-68580000D03*
%TD*%
%TO.P,1pin,1*%
%TO.N,N/C*%
X121920000Y-63500000D03*
%TD*%
%TO.P,1pin,1*%
%TO.N,N/C*%
X124460000Y-63500000D03*
%TD*%
%TO.P,1pin,1*%
%TO.N,N/C*%
X127000000Y-63500000D03*
%TD*%
%TO.P,1pin,1*%
%TO.N,N/C*%
X132080000Y-63500000D03*
%TD*%
%TO.P,1pin,1*%
%TO.N,N/C*%
X129540000Y-63500000D03*
%TD*%
%TO.P,1pin,1*%
%TO.N,N/C*%
X129540000Y-66040000D03*
%TD*%
%TO.P,1pin,1*%
%TO.N,N/C*%
X132080000Y-66040000D03*
%TD*%
%TO.P,1pin,1*%
%TO.N,N/C*%
X127000000Y-66040000D03*
%TD*%
%TO.P,1pin,1*%
%TO.N,N/C*%
X124460000Y-66040000D03*
%TD*%
%TO.P,1pin,1*%
%TO.N,N/C*%
X121920000Y-66040000D03*
%TD*%
%TO.P,1pin,1*%
%TO.N,N/C*%
X121920000Y-83820000D03*
%TD*%
%TO.P,1pin,1*%
%TO.N,N/C*%
X124460000Y-83820000D03*
%TD*%
%TO.P,1pin,1*%
%TO.N,N/C*%
X127000000Y-83820000D03*
%TD*%
%TO.P,1pin,1*%
%TO.N,N/C*%
X132080000Y-83820000D03*
%TD*%
%TO.P,1pin,1*%
%TO.N,N/C*%
X129540000Y-83820000D03*
%TD*%
%TO.P,1pin,1*%
%TO.N,N/C*%
X129540000Y-86360000D03*
%TD*%
%TO.P,1pin,1*%
%TO.N,N/C*%
X132080000Y-86360000D03*
%TD*%
%TO.P,1pin,1*%
%TO.N,N/C*%
X127000000Y-86360000D03*
%TD*%
%TO.P,1pin,1*%
%TO.N,N/C*%
X124460000Y-86360000D03*
%TD*%
%TO.P,1pin,1*%
%TO.N,N/C*%
X121920000Y-86360000D03*
%TD*%
%TO.P,1pin,1*%
%TO.N,N/C*%
X121920000Y-96520000D03*
%TD*%
%TO.P,1pin,1*%
%TO.N,N/C*%
X124460000Y-96520000D03*
%TD*%
%TO.P,1pin,1*%
%TO.N,N/C*%
X127000000Y-96520000D03*
%TD*%
%TO.P,1pin,1*%
%TO.N,N/C*%
X132080000Y-96520000D03*
%TD*%
%TO.P,1pin,1*%
%TO.N,N/C*%
X129540000Y-96520000D03*
%TD*%
%TO.P,1pin,1*%
%TO.N,N/C*%
X129540000Y-93980000D03*
%TD*%
%TO.P,1pin,1*%
%TO.N,N/C*%
X132080000Y-93980000D03*
%TD*%
%TO.P,1pin,1*%
%TO.N,N/C*%
X127000000Y-93980000D03*
%TD*%
%TO.P,1pin,1*%
%TO.N,N/C*%
X124460000Y-93980000D03*
%TD*%
%TO.P,1pin,1*%
%TO.N,N/C*%
X121920000Y-93980000D03*
%TD*%
%TO.P,1pin,1*%
%TO.N,N/C*%
X121920000Y-88900000D03*
%TD*%
%TO.P,1pin,1*%
%TO.N,N/C*%
X124460000Y-88900000D03*
%TD*%
%TO.P,1pin,1*%
%TO.N,N/C*%
X127000000Y-88900000D03*
%TD*%
%TO.P,1pin,1*%
%TO.N,N/C*%
X132080000Y-88900000D03*
%TD*%
%TO.P,1pin,1*%
%TO.N,N/C*%
X129540000Y-88900000D03*
%TD*%
%TO.P,1pin,1*%
%TO.N,N/C*%
X129540000Y-91440000D03*
%TD*%
%TO.P,1pin,1*%
%TO.N,N/C*%
X132080000Y-91440000D03*
%TD*%
%TO.P,1pin,1*%
%TO.N,N/C*%
X127000000Y-91440000D03*
%TD*%
%TO.P,1pin,1*%
%TO.N,N/C*%
X124460000Y-91440000D03*
%TD*%
%TO.P,1pin,1*%
%TO.N,N/C*%
X121920000Y-91440000D03*
%TD*%
%TO.P,1pin,1*%
%TO.N,N/C*%
X121920000Y-104140000D03*
%TD*%
%TO.P,1pin,1*%
%TO.N,N/C*%
X124460000Y-104140000D03*
%TD*%
%TO.P,1pin,1*%
%TO.N,N/C*%
X127000000Y-104140000D03*
%TD*%
%TO.P,1pin,1*%
%TO.N,N/C*%
X132080000Y-104140000D03*
%TD*%
%TO.P,1pin,1*%
%TO.N,N/C*%
X129540000Y-104140000D03*
%TD*%
%TO.P,1pin,1*%
%TO.N,N/C*%
X129540000Y-101600000D03*
%TD*%
%TO.P,1pin,1*%
%TO.N,N/C*%
X132080000Y-101600000D03*
%TD*%
%TO.P,1pin,1*%
%TO.N,N/C*%
X127000000Y-101600000D03*
%TD*%
%TO.P,1pin,1*%
%TO.N,N/C*%
X124460000Y-101600000D03*
%TD*%
%TO.P,1pin,1*%
%TO.N,N/C*%
X121920000Y-101600000D03*
%TD*%
%TO.P,1pin,1*%
%TO.N,N/C*%
X121920000Y-106680000D03*
%TD*%
%TO.P,1pin,1*%
%TO.N,N/C*%
X124460000Y-106680000D03*
%TD*%
%TO.P,1pin,1*%
%TO.N,N/C*%
X127000000Y-106680000D03*
%TD*%
%TO.P,1pin,1*%
%TO.N,N/C*%
X132080000Y-106680000D03*
%TD*%
%TO.P,1pin,1*%
%TO.N,N/C*%
X129540000Y-106680000D03*
%TD*%
%TO.P,1pin,1*%
%TO.N,N/C*%
X129540000Y-109220000D03*
%TD*%
%TO.P,1pin,1*%
%TO.N,N/C*%
X132080000Y-109220000D03*
%TD*%
%TO.P,1pin,1*%
%TO.N,N/C*%
X127000000Y-109220000D03*
%TD*%
%TO.P,1pin,1*%
%TO.N,N/C*%
X124460000Y-109220000D03*
%TD*%
%TO.P,1pin,1*%
%TO.N,N/C*%
X121920000Y-109220000D03*
%TD*%
%TO.P,1pin,1*%
%TO.N,N/C*%
X121920000Y-99060000D03*
%TD*%
%TO.P,1pin,1*%
%TO.N,N/C*%
X124460000Y-99060000D03*
%TD*%
%TO.P,1pin,1*%
%TO.N,N/C*%
X127000000Y-99060000D03*
%TD*%
%TO.P,1pin,1*%
%TO.N,N/C*%
X132080000Y-99060000D03*
%TD*%
%TO.P,1pin,1*%
%TO.N,N/C*%
X129540000Y-99060000D03*
%TD*%
%TO.P,1pin,1*%
%TO.N,N/C*%
X121920000Y-116840000D03*
%TD*%
%TO.P,1pin,1*%
%TO.N,N/C*%
X124460000Y-116840000D03*
%TD*%
%TO.P,1pin,1*%
%TO.N,N/C*%
X127000000Y-116840000D03*
%TD*%
%TO.P,1pin,1*%
%TO.N,N/C*%
X132080000Y-116840000D03*
%TD*%
%TO.P,1pin,1*%
%TO.N,N/C*%
X129540000Y-116840000D03*
%TD*%
%TO.P,1pin,1*%
%TO.N,N/C*%
X129540000Y-114300000D03*
%TD*%
%TO.P,1pin,1*%
%TO.N,N/C*%
X132080000Y-114300000D03*
%TD*%
%TO.P,1pin,1*%
%TO.N,N/C*%
X127000000Y-114300000D03*
%TD*%
%TO.P,1pin,1*%
%TO.N,N/C*%
X124460000Y-114300000D03*
%TD*%
%TO.P,1pin,1*%
%TO.N,N/C*%
X121920000Y-114300000D03*
%TD*%
%TO.P,1pin,1*%
%TO.N,N/C*%
X129540000Y-111760000D03*
%TD*%
%TO.P,1pin,1*%
%TO.N,N/C*%
X132080000Y-111760000D03*
%TD*%
%TO.P,1pin,1*%
%TO.N,N/C*%
X127000000Y-111760000D03*
%TD*%
%TO.P,1pin,1*%
%TO.N,N/C*%
X124460000Y-111760000D03*
%TD*%
%TO.P,1pin,1*%
%TO.N,N/C*%
X121920000Y-111760000D03*
%TD*%
D11*
%TO.P,1pin,1*%
%TO.N,N/C*%
X116840000Y-38100000D03*
%TD*%
%TO.P,1pin,1*%
%TO.N,N/C*%
X119380000Y-38100000D03*
%TD*%
%TO.P,1pin,1*%
%TO.N,N/C*%
X116840000Y-40640000D03*
%TD*%
%TO.P,1pin,1*%
%TO.N,N/C*%
X119380000Y-40640000D03*
%TD*%
D12*
%TO.P,1pin,1*%
%TO.N,N/C*%
X116840000Y-114300000D03*
%TD*%
%TO.P,1pin,1*%
%TO.N,N/C*%
X119380000Y-114300000D03*
%TD*%
%TO.P,1pin,1*%
%TO.N,N/C*%
X119380000Y-111760000D03*
%TD*%
%TO.P,1pin,1*%
%TO.N,N/C*%
X116840000Y-111760000D03*
%TD*%
%TO.P,1pin,1*%
%TO.N,N/C*%
X116840000Y-106680000D03*
%TD*%
%TO.P,1pin,1*%
%TO.N,N/C*%
X119380000Y-106680000D03*
%TD*%
%TO.P,1pin,1*%
%TO.N,N/C*%
X119380000Y-109220000D03*
%TD*%
%TO.P,1pin,1*%
%TO.N,N/C*%
X116840000Y-109220000D03*
%TD*%
%TO.P,1pin,1*%
%TO.N,N/C*%
X116840000Y-99060000D03*
%TD*%
%TO.P,1pin,1*%
%TO.N,N/C*%
X119380000Y-99060000D03*
%TD*%
%TO.P,1pin,1*%
%TO.N,N/C*%
X119380000Y-96520000D03*
%TD*%
%TO.P,1pin,1*%
%TO.N,N/C*%
X116840000Y-96520000D03*
%TD*%
%TO.P,1pin,1*%
%TO.N,N/C*%
X119380000Y-104140000D03*
%TD*%
%TO.P,1pin,1*%
%TO.N,N/C*%
X116840000Y-104140000D03*
%TD*%
%TO.P,1pin,1*%
%TO.N,N/C*%
X116840000Y-83820000D03*
%TD*%
%TO.P,1pin,1*%
%TO.N,N/C*%
X119380000Y-83820000D03*
%TD*%
%TO.P,1pin,1*%
%TO.N,N/C*%
X119380000Y-81280000D03*
%TD*%
%TO.P,1pin,1*%
%TO.N,N/C*%
X116840000Y-81280000D03*
%TD*%
%TO.P,1pin,1*%
%TO.N,N/C*%
X116840000Y-76200000D03*
%TD*%
%TO.P,1pin,1*%
%TO.N,N/C*%
X119380000Y-76200000D03*
%TD*%
%TO.P,1pin,1*%
%TO.N,N/C*%
X119380000Y-78740000D03*
%TD*%
%TO.P,1pin,1*%
%TO.N,N/C*%
X116840000Y-78740000D03*
%TD*%
%TO.P,1pin,1*%
%TO.N,N/C*%
X116840000Y-88900000D03*
%TD*%
%TO.P,1pin,1*%
%TO.N,N/C*%
X119380000Y-88900000D03*
%TD*%
%TO.P,1pin,1*%
%TO.N,N/C*%
X116840000Y-91440000D03*
%TD*%
%TO.P,1pin,1*%
%TO.N,N/C*%
X119380000Y-91440000D03*
%TD*%
%TO.P,1pin,1*%
%TO.N,N/C*%
X119380000Y-93980000D03*
%TD*%
%TO.P,1pin,1*%
%TO.N,N/C*%
X116840000Y-93980000D03*
%TD*%
%TO.P,1pin,1*%
%TO.N,N/C*%
X116840000Y-53340000D03*
%TD*%
%TO.P,1pin,1*%
%TO.N,N/C*%
X119380000Y-53340000D03*
%TD*%
%TO.P,1pin,1*%
%TO.N,N/C*%
X119380000Y-50800000D03*
%TD*%
%TO.P,1pin,1*%
%TO.N,N/C*%
X116840000Y-50800000D03*
%TD*%
%TO.P,1pin,1*%
%TO.N,N/C*%
X116840000Y-45720000D03*
%TD*%
%TO.P,1pin,1*%
%TO.N,N/C*%
X119380000Y-45720000D03*
%TD*%
%TO.P,1pin,1*%
%TO.N,N/C*%
X119380000Y-48260000D03*
%TD*%
%TO.P,1pin,1*%
%TO.N,N/C*%
X116840000Y-48260000D03*
%TD*%
D11*
%TO.P,1pin,1*%
%TO.N,N/C*%
X119380000Y-43180000D03*
%TD*%
%TO.P,1pin,1*%
%TO.N,N/C*%
X116840000Y-43180000D03*
%TD*%
D12*
%TO.P,1pin,1*%
%TO.N,N/C*%
X116840000Y-63500000D03*
%TD*%
%TO.P,1pin,1*%
%TO.N,N/C*%
X119380000Y-63500000D03*
%TD*%
%TO.P,1pin,1*%
%TO.N,N/C*%
X119380000Y-60960000D03*
%TD*%
%TO.P,1pin,1*%
%TO.N,N/C*%
X116840000Y-60960000D03*
%TD*%
%TO.P,1pin,1*%
%TO.N,N/C*%
X119380000Y-58420000D03*
%TD*%
%TO.P,1pin,1*%
%TO.N,N/C*%
X116840000Y-58420000D03*
%TD*%
%TO.P,1pin,1*%
%TO.N,N/C*%
X116840000Y-68580000D03*
%TD*%
%TO.P,1pin,1*%
%TO.N,N/C*%
X119380000Y-68580000D03*
%TD*%
%TO.P,1pin,1*%
%TO.N,N/C*%
X119380000Y-66040000D03*
%TD*%
%TO.P,1pin,1*%
%TO.N,N/C*%
X116840000Y-66040000D03*
%TD*%
%TO.P,1pin,1*%
%TO.N,N/C*%
X119380000Y-73660000D03*
%TD*%
%TO.P,1pin,1*%
%TO.N,N/C*%
X116840000Y-73660000D03*
%TD*%
%TO.P,1pin,1*%
%TO.N,N/C*%
X116840000Y-55880000D03*
%TD*%
%TO.P,1pin,1*%
%TO.N,N/C*%
X119380000Y-55880000D03*
%TD*%
%TO.P,1pin,1*%
%TO.N,N/C*%
X116840000Y-71120000D03*
%TD*%
%TO.P,1pin,1*%
%TO.N,N/C*%
X119380000Y-71120000D03*
%TD*%
%TO.P,1pin,1*%
%TO.N,N/C*%
X116840000Y-86360000D03*
%TD*%
%TO.P,1pin,1*%
%TO.N,N/C*%
X119380000Y-86360000D03*
%TD*%
%TO.P,1pin,1*%
%TO.N,N/C*%
X116840000Y-101600000D03*
%TD*%
%TO.P,1pin,1*%
%TO.N,N/C*%
X119380000Y-101600000D03*
%TD*%
%TO.P,1pin,1*%
%TO.N,N/C*%
X116840000Y-116840000D03*
%TD*%
%TO.P,1pin,1*%
%TO.N,N/C*%
X119380000Y-116840000D03*
%TD*%
D11*
%TO.P,1pin,1*%
%TO.N,N/C*%
X144780000Y-39370000D03*
%TD*%
%TO.P,1pin,1*%
%TO.N,N/C*%
X142240000Y-39370000D03*
%TD*%
%TO.P,1pin,1*%
%TO.N,N/C*%
X142240000Y-41910000D03*
%TD*%
%TO.P,1pin,1*%
%TO.N,N/C*%
X144780000Y-41910000D03*
%TD*%
%TO.P,1pin,1*%
%TO.N,N/C*%
X93980000Y-39370000D03*
%TD*%
%TO.P,1pin,1*%
%TO.N,N/C*%
X91440000Y-39370000D03*
%TD*%
%TO.P,1pin,1*%
%TO.N,N/C*%
X93980000Y-41910000D03*
%TD*%
%TO.P,1pin,1*%
%TO.N,N/C*%
X91440000Y-41910000D03*
%TD*%
%TO.P,1pin,1*%
%TO.N,N/C*%
X144780000Y-107950000D03*
%TD*%
%TO.P,1pin,1*%
%TO.N,N/C*%
X142240000Y-107950000D03*
%TD*%
%TO.P,1pin,1*%
%TO.N,N/C*%
X142240000Y-105410000D03*
%TD*%
%TO.P,1pin,1*%
%TO.N,N/C*%
X144780000Y-105410000D03*
%TD*%
%TO.P,1pin,1*%
%TO.N,N/C*%
X144780000Y-100330000D03*
%TD*%
%TO.P,1pin,1*%
%TO.N,N/C*%
X142240000Y-100330000D03*
%TD*%
%TO.P,1pin,1*%
%TO.N,N/C*%
X142240000Y-102870000D03*
%TD*%
%TO.P,1pin,1*%
%TO.N,N/C*%
X144780000Y-102870000D03*
%TD*%
%TO.P,1pin,1*%
%TO.N,N/C*%
X144780000Y-92710000D03*
%TD*%
%TO.P,1pin,1*%
%TO.N,N/C*%
X142240000Y-92710000D03*
%TD*%
%TO.P,1pin,1*%
%TO.N,N/C*%
X142240000Y-90170000D03*
%TD*%
%TO.P,1pin,1*%
%TO.N,N/C*%
X144780000Y-90170000D03*
%TD*%
%TO.P,1pin,1*%
%TO.N,N/C*%
X144780000Y-77470000D03*
%TD*%
%TO.P,1pin,1*%
%TO.N,N/C*%
X142240000Y-77470000D03*
%TD*%
%TO.P,1pin,1*%
%TO.N,N/C*%
X142240000Y-74930000D03*
%TD*%
%TO.P,1pin,1*%
%TO.N,N/C*%
X144780000Y-74930000D03*
%TD*%
%TO.P,1pin,1*%
%TO.N,N/C*%
X144780000Y-69850000D03*
%TD*%
%TO.P,1pin,1*%
%TO.N,N/C*%
X142240000Y-69850000D03*
%TD*%
%TO.P,1pin,1*%
%TO.N,N/C*%
X142240000Y-72390000D03*
%TD*%
%TO.P,1pin,1*%
%TO.N,N/C*%
X144780000Y-72390000D03*
%TD*%
%TO.P,1pin,1*%
%TO.N,N/C*%
X144780000Y-85090000D03*
%TD*%
%TO.P,1pin,1*%
%TO.N,N/C*%
X142240000Y-85090000D03*
%TD*%
%TO.P,1pin,1*%
%TO.N,N/C*%
X142240000Y-87630000D03*
%TD*%
%TO.P,1pin,1*%
%TO.N,N/C*%
X144780000Y-87630000D03*
%TD*%
%TO.P,1pin,1*%
%TO.N,N/C*%
X144780000Y-46990000D03*
%TD*%
%TO.P,1pin,1*%
%TO.N,N/C*%
X142240000Y-46990000D03*
%TD*%
%TO.P,1pin,1*%
%TO.N,N/C*%
X142240000Y-44450000D03*
%TD*%
%TO.P,1pin,1*%
%TO.N,N/C*%
X144780000Y-44450000D03*
%TD*%
%TO.P,1pin,1*%
%TO.N,N/C*%
X144780000Y-57150000D03*
%TD*%
%TO.P,1pin,1*%
%TO.N,N/C*%
X142240000Y-57150000D03*
%TD*%
%TO.P,1pin,1*%
%TO.N,N/C*%
X142240000Y-54610000D03*
%TD*%
%TO.P,1pin,1*%
%TO.N,N/C*%
X144780000Y-54610000D03*
%TD*%
%TO.P,1pin,1*%
%TO.N,N/C*%
X144780000Y-62230000D03*
%TD*%
%TO.P,1pin,1*%
%TO.N,N/C*%
X142240000Y-62230000D03*
%TD*%
%TO.P,1pin,1*%
%TO.N,N/C*%
X142240000Y-59690000D03*
%TD*%
%TO.P,1pin,1*%
%TO.N,N/C*%
X144780000Y-59690000D03*
%TD*%
D12*
%TO.P,1pin,1*%
%TO.N,N/C*%
X91440000Y-59690000D03*
%TD*%
%TO.P,1pin,1*%
%TO.N,N/C*%
X93980000Y-59690000D03*
%TD*%
%TO.P,1pin,1*%
%TO.N,N/C*%
X93980000Y-62230000D03*
%TD*%
%TO.P,1pin,1*%
%TO.N,N/C*%
X91440000Y-62230000D03*
%TD*%
%TO.P,1pin,1*%
%TO.N,N/C*%
X91440000Y-54610000D03*
%TD*%
%TO.P,1pin,1*%
%TO.N,N/C*%
X93980000Y-54610000D03*
%TD*%
%TO.P,1pin,1*%
%TO.N,N/C*%
X93980000Y-57150000D03*
%TD*%
%TO.P,1pin,1*%
%TO.N,N/C*%
X91440000Y-57150000D03*
%TD*%
D11*
%TO.P,1pin,1*%
%TO.N,N/C*%
X91440000Y-44450000D03*
%TD*%
%TO.P,1pin,1*%
%TO.N,N/C*%
X93980000Y-44450000D03*
%TD*%
D12*
%TO.P,1pin,1*%
%TO.N,N/C*%
X93980000Y-46990000D03*
%TD*%
%TO.P,1pin,1*%
%TO.N,N/C*%
X91440000Y-46990000D03*
%TD*%
%TO.P,1pin,1*%
%TO.N,N/C*%
X91440000Y-87630000D03*
%TD*%
%TO.P,1pin,1*%
%TO.N,N/C*%
X93980000Y-87630000D03*
%TD*%
%TO.P,1pin,1*%
%TO.N,N/C*%
X93980000Y-85090000D03*
%TD*%
%TO.P,1pin,1*%
%TO.N,N/C*%
X91440000Y-85090000D03*
%TD*%
%TO.P,1pin,1*%
%TO.N,N/C*%
X91440000Y-72390000D03*
%TD*%
%TO.P,1pin,1*%
%TO.N,N/C*%
X93980000Y-72390000D03*
%TD*%
%TO.P,1pin,1*%
%TO.N,N/C*%
X93980000Y-69850000D03*
%TD*%
%TO.P,1pin,1*%
%TO.N,N/C*%
X91440000Y-69850000D03*
%TD*%
%TO.P,1pin,1*%
%TO.N,N/C*%
X91440000Y-74930000D03*
%TD*%
%TO.P,1pin,1*%
%TO.N,N/C*%
X93980000Y-74930000D03*
%TD*%
%TO.P,1pin,1*%
%TO.N,N/C*%
X93980000Y-77470000D03*
%TD*%
%TO.P,1pin,1*%
%TO.N,N/C*%
X91440000Y-77470000D03*
%TD*%
%TO.P,1pin,1*%
%TO.N,N/C*%
X91440000Y-90170000D03*
%TD*%
%TO.P,1pin,1*%
%TO.N,N/C*%
X93980000Y-90170000D03*
%TD*%
%TO.P,1pin,1*%
%TO.N,N/C*%
X93980000Y-92710000D03*
%TD*%
%TO.P,1pin,1*%
%TO.N,N/C*%
X91440000Y-92710000D03*
%TD*%
%TO.P,1pin,1*%
%TO.N,N/C*%
X91440000Y-49530000D03*
%TD*%
%TO.P,1pin,1*%
%TO.N,N/C*%
X93980000Y-49530000D03*
%TD*%
%TO.P,1pin,1*%
%TO.N,N/C*%
X91440000Y-64770000D03*
%TD*%
%TO.P,1pin,1*%
%TO.N,N/C*%
X93980000Y-64770000D03*
%TD*%
%TO.P,1pin,1*%
%TO.N,N/C*%
X91440000Y-80010000D03*
%TD*%
%TO.P,1pin,1*%
%TO.N,N/C*%
X93980000Y-80010000D03*
%TD*%
%TO.P,1pin,1*%
%TO.N,N/C*%
X91440000Y-95250000D03*
%TD*%
%TO.P,1pin,1*%
%TO.N,N/C*%
X93980000Y-95250000D03*
%TD*%
D11*
%TO.P,1pin,1*%
%TO.N,N/C*%
X142240000Y-49530000D03*
%TD*%
%TO.P,1pin,1*%
%TO.N,N/C*%
X144780000Y-49530000D03*
%TD*%
%TO.P,1pin,1*%
%TO.N,N/C*%
X142240000Y-64770000D03*
%TD*%
%TO.P,1pin,1*%
%TO.N,N/C*%
X144780000Y-64770000D03*
%TD*%
%TO.P,1pin,1*%
%TO.N,N/C*%
X142240000Y-80010000D03*
%TD*%
%TO.P,1pin,1*%
%TO.N,N/C*%
X144780000Y-80010000D03*
%TD*%
%TO.P,1pin,1*%
%TO.N,N/C*%
X142240000Y-95250000D03*
%TD*%
%TO.P,1pin,1*%
%TO.N,N/C*%
X144780000Y-95250000D03*
%TD*%
D12*
%TO.P,1pin,1*%
%TO.N,N/C*%
X142240000Y-110490000D03*
%TD*%
%TO.P,1pin,1*%
%TO.N,N/C*%
X144780000Y-110490000D03*
%TD*%
%TO.P,1pin,1*%
%TO.N,N/C*%
X91440000Y-102870000D03*
%TD*%
%TO.P,1pin,1*%
%TO.N,N/C*%
X93980000Y-102870000D03*
%TD*%
%TO.P,1pin,1*%
%TO.N,N/C*%
X93980000Y-100330000D03*
%TD*%
%TO.P,1pin,1*%
%TO.N,N/C*%
X91440000Y-100330000D03*
%TD*%
%TO.P,1pin,1*%
%TO.N,N/C*%
X91440000Y-105410000D03*
%TD*%
%TO.P,1pin,1*%
%TO.N,N/C*%
X93980000Y-105410000D03*
%TD*%
%TO.P,1pin,1*%
%TO.N,N/C*%
X93980000Y-107950000D03*
%TD*%
%TO.P,1pin,1*%
%TO.N,N/C*%
X91440000Y-107950000D03*
%TD*%
%TO.P,1pin,1*%
%TO.N,N/C*%
X91440000Y-110490000D03*
%TD*%
%TO.P,1pin,1*%
%TO.N,N/C*%
X93980000Y-110490000D03*
%TD*%
D13*
%TO.N,*%
X93980000Y-92710000D02*
X93980000Y-95250000D01*
X93980000Y-77470000D02*
X93980000Y-80010000D01*
X93980000Y-62230000D02*
X93980000Y-64770000D01*
X93980000Y-46990000D02*
X93980000Y-49530000D01*
X93980000Y-54610000D02*
X93980000Y-49530000D01*
X93980000Y-85090000D02*
X93980000Y-80010000D01*
X93980000Y-69850000D02*
X93980000Y-64770000D01*
X93980000Y-100330000D02*
X93980000Y-95250000D01*
X144780000Y-41910000D02*
X144780000Y-39370000D01*
X144780000Y-44450000D02*
X144780000Y-41910000D01*
X93980000Y-41910000D02*
X93980000Y-39370000D01*
X93980000Y-44450000D02*
X93980000Y-41910000D01*
X121920000Y-38100000D02*
X124460000Y-38100000D01*
X124460000Y-38100000D02*
X127000000Y-38100000D01*
X109220000Y-38100000D02*
X106680000Y-38100000D01*
X111760000Y-38100000D02*
X109220000Y-38100000D01*
X119380000Y-38100000D02*
X119380000Y-40640000D01*
X129540000Y-38100000D02*
X132080000Y-38100000D01*
X106680000Y-38100000D02*
X104140000Y-38100000D01*
X114300000Y-38100000D02*
X111760000Y-38100000D01*
X127000000Y-38100000D02*
X129540000Y-38100000D01*
X119380000Y-40640000D02*
X119380000Y-43180000D01*
X114300000Y-40640000D02*
X111760000Y-40640000D01*
X111760000Y-40640000D02*
X109220000Y-40640000D01*
X109220000Y-40640000D02*
X106680000Y-40640000D01*
X106680000Y-40640000D02*
X104140000Y-40640000D01*
X121920000Y-40640000D02*
X124460000Y-40640000D01*
X124460000Y-40640000D02*
X127000000Y-40640000D01*
X127000000Y-40640000D02*
X129540000Y-40640000D01*
X129540000Y-40640000D02*
X132080000Y-40640000D01*
X129540000Y-43180000D02*
X132080000Y-43180000D01*
X127000000Y-43180000D02*
X129540000Y-43180000D01*
X124460000Y-43180000D02*
X127000000Y-43180000D01*
X121920000Y-43180000D02*
X124460000Y-43180000D01*
X129540000Y-45720000D02*
X132080000Y-45720000D01*
X127000000Y-45720000D02*
X129540000Y-45720000D01*
X124460000Y-45720000D02*
X127000000Y-45720000D01*
X121920000Y-45720000D02*
X124460000Y-45720000D01*
X106680000Y-45720000D02*
X104140000Y-45720000D01*
X109220000Y-45720000D02*
X106680000Y-45720000D01*
X111760000Y-45720000D02*
X109220000Y-45720000D01*
X114300000Y-45720000D02*
X111760000Y-45720000D01*
X106680000Y-43180000D02*
X104140000Y-43180000D01*
X109220000Y-43180000D02*
X106680000Y-43180000D01*
X111760000Y-43180000D02*
X109220000Y-43180000D01*
X114300000Y-43180000D02*
X111760000Y-43180000D01*
X114300000Y-48260000D02*
X111760000Y-48260000D01*
X111760000Y-48260000D02*
X109220000Y-48260000D01*
X109220000Y-48260000D02*
X106680000Y-48260000D01*
X106680000Y-48260000D02*
X104140000Y-48260000D01*
X114300000Y-50800000D02*
X111760000Y-50800000D01*
X111760000Y-50800000D02*
X109220000Y-50800000D01*
X109220000Y-50800000D02*
X106680000Y-50800000D01*
X106680000Y-50800000D02*
X104140000Y-50800000D01*
X106680000Y-60960000D02*
X104140000Y-60960000D01*
X109220000Y-60960000D02*
X106680000Y-60960000D01*
X111760000Y-60960000D02*
X109220000Y-60960000D01*
X114300000Y-60960000D02*
X111760000Y-60960000D01*
X106680000Y-58420000D02*
X104140000Y-58420000D01*
X109220000Y-58420000D02*
X106680000Y-58420000D01*
X111760000Y-58420000D02*
X109220000Y-58420000D01*
X114300000Y-58420000D02*
X111760000Y-58420000D01*
X114300000Y-53340000D02*
X111760000Y-53340000D01*
X111760000Y-53340000D02*
X109220000Y-53340000D01*
X109220000Y-53340000D02*
X106680000Y-53340000D01*
X106680000Y-53340000D02*
X104140000Y-53340000D01*
X114300000Y-55880000D02*
X111760000Y-55880000D01*
X111760000Y-55880000D02*
X109220000Y-55880000D01*
X109220000Y-55880000D02*
X106680000Y-55880000D01*
X106680000Y-55880000D02*
X104140000Y-55880000D01*
X106680000Y-76200000D02*
X104140000Y-76200000D01*
X109220000Y-76200000D02*
X106680000Y-76200000D01*
X111760000Y-76200000D02*
X109220000Y-76200000D01*
X114300000Y-76200000D02*
X111760000Y-76200000D01*
X106680000Y-73660000D02*
X104140000Y-73660000D01*
X109220000Y-73660000D02*
X106680000Y-73660000D01*
X111760000Y-73660000D02*
X109220000Y-73660000D01*
X114300000Y-73660000D02*
X111760000Y-73660000D01*
X114300000Y-78740000D02*
X111760000Y-78740000D01*
X111760000Y-78740000D02*
X109220000Y-78740000D01*
X109220000Y-78740000D02*
X106680000Y-78740000D01*
X106680000Y-78740000D02*
X104140000Y-78740000D01*
X114300000Y-81280000D02*
X111760000Y-81280000D01*
X111760000Y-81280000D02*
X109220000Y-81280000D01*
X109220000Y-81280000D02*
X106680000Y-81280000D01*
X106680000Y-81280000D02*
X104140000Y-81280000D01*
X106680000Y-71120000D02*
X104140000Y-71120000D01*
X109220000Y-71120000D02*
X106680000Y-71120000D01*
X111760000Y-71120000D02*
X109220000Y-71120000D01*
X114300000Y-71120000D02*
X111760000Y-71120000D01*
X106680000Y-68580000D02*
X104140000Y-68580000D01*
X109220000Y-68580000D02*
X106680000Y-68580000D01*
X111760000Y-68580000D02*
X109220000Y-68580000D01*
X114300000Y-68580000D02*
X111760000Y-68580000D01*
X114300000Y-63500000D02*
X111760000Y-63500000D01*
X111760000Y-63500000D02*
X109220000Y-63500000D01*
X109220000Y-63500000D02*
X106680000Y-63500000D01*
X106680000Y-63500000D02*
X104140000Y-63500000D01*
X114300000Y-66040000D02*
X111760000Y-66040000D01*
X111760000Y-66040000D02*
X109220000Y-66040000D01*
X109220000Y-66040000D02*
X106680000Y-66040000D01*
X106680000Y-66040000D02*
X104140000Y-66040000D01*
X106680000Y-106680000D02*
X104140000Y-106680000D01*
X109220000Y-106680000D02*
X106680000Y-106680000D01*
X111760000Y-106680000D02*
X109220000Y-106680000D01*
X114300000Y-106680000D02*
X111760000Y-106680000D01*
X106680000Y-104140000D02*
X104140000Y-104140000D01*
X109220000Y-104140000D02*
X106680000Y-104140000D01*
X111760000Y-104140000D02*
X109220000Y-104140000D01*
X114300000Y-104140000D02*
X111760000Y-104140000D01*
X114300000Y-109220000D02*
X111760000Y-109220000D01*
X111760000Y-109220000D02*
X109220000Y-109220000D01*
X109220000Y-109220000D02*
X106680000Y-109220000D01*
X106680000Y-109220000D02*
X104140000Y-109220000D01*
X114300000Y-111760000D02*
X111760000Y-111760000D01*
X111760000Y-111760000D02*
X109220000Y-111760000D01*
X109220000Y-111760000D02*
X106680000Y-111760000D01*
X106680000Y-111760000D02*
X104140000Y-111760000D01*
X114300000Y-114300000D02*
X111760000Y-114300000D01*
X111760000Y-114300000D02*
X109220000Y-114300000D01*
X109220000Y-114300000D02*
X106680000Y-114300000D01*
X106680000Y-114300000D02*
X104140000Y-114300000D01*
X114300000Y-116840000D02*
X111760000Y-116840000D01*
X111760000Y-116840000D02*
X109220000Y-116840000D01*
X109220000Y-116840000D02*
X106680000Y-116840000D01*
X106680000Y-116840000D02*
X104140000Y-116840000D01*
X106680000Y-96520000D02*
X104140000Y-96520000D01*
X109220000Y-96520000D02*
X106680000Y-96520000D01*
X111760000Y-96520000D02*
X109220000Y-96520000D01*
X114300000Y-96520000D02*
X111760000Y-96520000D01*
X106680000Y-93980000D02*
X104140000Y-93980000D01*
X109220000Y-93980000D02*
X106680000Y-93980000D01*
X111760000Y-93980000D02*
X109220000Y-93980000D01*
X114300000Y-93980000D02*
X111760000Y-93980000D01*
X114300000Y-99060000D02*
X111760000Y-99060000D01*
X111760000Y-99060000D02*
X109220000Y-99060000D01*
X109220000Y-99060000D02*
X106680000Y-99060000D01*
X106680000Y-99060000D02*
X104140000Y-99060000D01*
X114300000Y-101600000D02*
X111760000Y-101600000D01*
X111760000Y-101600000D02*
X109220000Y-101600000D01*
X109220000Y-101600000D02*
X106680000Y-101600000D01*
X106680000Y-101600000D02*
X104140000Y-101600000D01*
X106680000Y-91440000D02*
X104140000Y-91440000D01*
X109220000Y-91440000D02*
X106680000Y-91440000D01*
X111760000Y-91440000D02*
X109220000Y-91440000D01*
X114300000Y-91440000D02*
X111760000Y-91440000D01*
X106680000Y-88900000D02*
X104140000Y-88900000D01*
X109220000Y-88900000D02*
X106680000Y-88900000D01*
X111760000Y-88900000D02*
X109220000Y-88900000D01*
X114300000Y-88900000D02*
X111760000Y-88900000D01*
X114300000Y-83820000D02*
X111760000Y-83820000D01*
X111760000Y-83820000D02*
X109220000Y-83820000D01*
X109220000Y-83820000D02*
X106680000Y-83820000D01*
X106680000Y-83820000D02*
X104140000Y-83820000D01*
X114300000Y-86360000D02*
X111760000Y-86360000D01*
X111760000Y-86360000D02*
X109220000Y-86360000D01*
X109220000Y-86360000D02*
X106680000Y-86360000D01*
X106680000Y-86360000D02*
X104140000Y-86360000D01*
X121920000Y-50800000D02*
X124460000Y-50800000D01*
X124460000Y-50800000D02*
X127000000Y-50800000D01*
X127000000Y-50800000D02*
X129540000Y-50800000D01*
X129540000Y-50800000D02*
X132080000Y-50800000D01*
X121920000Y-48260000D02*
X124460000Y-48260000D01*
X124460000Y-48260000D02*
X127000000Y-48260000D01*
X127000000Y-48260000D02*
X129540000Y-48260000D01*
X129540000Y-48260000D02*
X132080000Y-48260000D01*
X129540000Y-58420000D02*
X132080000Y-58420000D01*
X127000000Y-58420000D02*
X129540000Y-58420000D01*
X124460000Y-58420000D02*
X127000000Y-58420000D01*
X121920000Y-58420000D02*
X124460000Y-58420000D01*
X129540000Y-60960000D02*
X132080000Y-60960000D01*
X127000000Y-60960000D02*
X129540000Y-60960000D01*
X124460000Y-60960000D02*
X127000000Y-60960000D01*
X121920000Y-60960000D02*
X124460000Y-60960000D01*
X121920000Y-55880000D02*
X124460000Y-55880000D01*
X124460000Y-55880000D02*
X127000000Y-55880000D01*
X127000000Y-55880000D02*
X129540000Y-55880000D01*
X129540000Y-55880000D02*
X132080000Y-55880000D01*
X121920000Y-53340000D02*
X124460000Y-53340000D01*
X124460000Y-53340000D02*
X127000000Y-53340000D01*
X127000000Y-53340000D02*
X129540000Y-53340000D01*
X129540000Y-53340000D02*
X132080000Y-53340000D01*
X129540000Y-73660000D02*
X132080000Y-73660000D01*
X127000000Y-73660000D02*
X129540000Y-73660000D01*
X124460000Y-73660000D02*
X127000000Y-73660000D01*
X121920000Y-73660000D02*
X124460000Y-73660000D01*
X129540000Y-76200000D02*
X132080000Y-76200000D01*
X127000000Y-76200000D02*
X129540000Y-76200000D01*
X124460000Y-76200000D02*
X127000000Y-76200000D01*
X121920000Y-76200000D02*
X124460000Y-76200000D01*
X121920000Y-81280000D02*
X124460000Y-81280000D01*
X124460000Y-81280000D02*
X127000000Y-81280000D01*
X127000000Y-81280000D02*
X129540000Y-81280000D01*
X129540000Y-81280000D02*
X132080000Y-81280000D01*
X121920000Y-78740000D02*
X124460000Y-78740000D01*
X124460000Y-78740000D02*
X127000000Y-78740000D01*
X127000000Y-78740000D02*
X129540000Y-78740000D01*
X129540000Y-78740000D02*
X132080000Y-78740000D01*
X129540000Y-68580000D02*
X132080000Y-68580000D01*
X127000000Y-68580000D02*
X129540000Y-68580000D01*
X124460000Y-68580000D02*
X127000000Y-68580000D01*
X121920000Y-68580000D02*
X124460000Y-68580000D01*
X129540000Y-71120000D02*
X132080000Y-71120000D01*
X127000000Y-71120000D02*
X129540000Y-71120000D01*
X124460000Y-71120000D02*
X127000000Y-71120000D01*
X121920000Y-71120000D02*
X124460000Y-71120000D01*
X121920000Y-66040000D02*
X124460000Y-66040000D01*
X124460000Y-66040000D02*
X127000000Y-66040000D01*
X127000000Y-66040000D02*
X129540000Y-66040000D01*
X129540000Y-66040000D02*
X132080000Y-66040000D01*
X121920000Y-63500000D02*
X124460000Y-63500000D01*
X124460000Y-63500000D02*
X127000000Y-63500000D01*
X127000000Y-63500000D02*
X129540000Y-63500000D01*
X129540000Y-63500000D02*
X132080000Y-63500000D01*
X121920000Y-86360000D02*
X124460000Y-86360000D01*
X124460000Y-86360000D02*
X127000000Y-86360000D01*
X127000000Y-86360000D02*
X129540000Y-86360000D01*
X129540000Y-86360000D02*
X132080000Y-86360000D01*
X121920000Y-83820000D02*
X124460000Y-83820000D01*
X124460000Y-83820000D02*
X127000000Y-83820000D01*
X127000000Y-83820000D02*
X129540000Y-83820000D01*
X129540000Y-83820000D02*
X132080000Y-83820000D01*
X129540000Y-93980000D02*
X132080000Y-93980000D01*
X127000000Y-93980000D02*
X129540000Y-93980000D01*
X124460000Y-93980000D02*
X127000000Y-93980000D01*
X121920000Y-93980000D02*
X124460000Y-93980000D01*
X129540000Y-96520000D02*
X132080000Y-96520000D01*
X127000000Y-96520000D02*
X129540000Y-96520000D01*
X124460000Y-96520000D02*
X127000000Y-96520000D01*
X121920000Y-96520000D02*
X124460000Y-96520000D01*
X121920000Y-91440000D02*
X124460000Y-91440000D01*
X124460000Y-91440000D02*
X127000000Y-91440000D01*
X127000000Y-91440000D02*
X129540000Y-91440000D01*
X129540000Y-91440000D02*
X132080000Y-91440000D01*
X121920000Y-88900000D02*
X124460000Y-88900000D01*
X124460000Y-88900000D02*
X127000000Y-88900000D01*
X127000000Y-88900000D02*
X129540000Y-88900000D01*
X129540000Y-88900000D02*
X132080000Y-88900000D01*
X129540000Y-101600000D02*
X132080000Y-101600000D01*
X127000000Y-101600000D02*
X129540000Y-101600000D01*
X124460000Y-101600000D02*
X127000000Y-101600000D01*
X121920000Y-101600000D02*
X124460000Y-101600000D01*
X129540000Y-104140000D02*
X132080000Y-104140000D01*
X127000000Y-104140000D02*
X129540000Y-104140000D01*
X124460000Y-104140000D02*
X127000000Y-104140000D01*
X121920000Y-104140000D02*
X124460000Y-104140000D01*
X121920000Y-109220000D02*
X124460000Y-109220000D01*
X124460000Y-109220000D02*
X127000000Y-109220000D01*
X127000000Y-109220000D02*
X129540000Y-109220000D01*
X129540000Y-109220000D02*
X132080000Y-109220000D01*
X121920000Y-106680000D02*
X124460000Y-106680000D01*
X124460000Y-106680000D02*
X127000000Y-106680000D01*
X127000000Y-106680000D02*
X129540000Y-106680000D01*
X129540000Y-106680000D02*
X132080000Y-106680000D01*
X129540000Y-96520000D02*
X132080000Y-96520000D01*
X127000000Y-96520000D02*
X129540000Y-96520000D01*
X124460000Y-96520000D02*
X127000000Y-96520000D01*
X121920000Y-96520000D02*
X124460000Y-96520000D01*
X129540000Y-99060000D02*
X132080000Y-99060000D01*
X127000000Y-99060000D02*
X129540000Y-99060000D01*
X124460000Y-99060000D02*
X127000000Y-99060000D01*
X121920000Y-99060000D02*
X124460000Y-99060000D01*
X129540000Y-114300000D02*
X132080000Y-114300000D01*
X127000000Y-114300000D02*
X129540000Y-114300000D01*
X124460000Y-114300000D02*
X127000000Y-114300000D01*
X121920000Y-114300000D02*
X124460000Y-114300000D01*
X129540000Y-116840000D02*
X132080000Y-116840000D01*
X127000000Y-116840000D02*
X129540000Y-116840000D01*
X124460000Y-116840000D02*
X127000000Y-116840000D01*
X121920000Y-116840000D02*
X124460000Y-116840000D01*
X121920000Y-111760000D02*
X124460000Y-111760000D01*
X124460000Y-111760000D02*
X127000000Y-111760000D01*
X127000000Y-111760000D02*
X129540000Y-111760000D01*
X129540000Y-111760000D02*
X132080000Y-111760000D01*
X119380000Y-43180000D02*
X119380000Y-45720000D01*
X119380000Y-45720000D02*
X119380000Y-48260000D01*
X119380000Y-48260000D02*
X119380000Y-50800000D01*
X119380000Y-50800000D02*
X119380000Y-53340000D01*
X119380000Y-53340000D02*
X119380000Y-58420000D01*
X119380000Y-58420000D02*
X119380000Y-60960000D01*
X119380000Y-60960000D02*
X119380000Y-63500000D01*
X119380000Y-63500000D02*
X119380000Y-66040000D01*
X119380000Y-66040000D02*
X119380000Y-68580000D01*
X119380000Y-68580000D02*
X119380000Y-73660000D01*
X119380000Y-73660000D02*
X119380000Y-76200000D01*
X119380000Y-76200000D02*
X119380000Y-78740000D01*
X119380000Y-78740000D02*
X119380000Y-81280000D01*
X119380000Y-81280000D02*
X119380000Y-83820000D01*
X119380000Y-83820000D02*
X119380000Y-88900000D01*
X119380000Y-88900000D02*
X119380000Y-91440000D01*
X119380000Y-91440000D02*
X119380000Y-93980000D01*
X119380000Y-93980000D02*
X119380000Y-96520000D01*
X119380000Y-96520000D02*
X119380000Y-99060000D01*
X119380000Y-99060000D02*
X119380000Y-104140000D01*
X119380000Y-104140000D02*
X119380000Y-106680000D01*
X119380000Y-106680000D02*
X119380000Y-109220000D01*
X119380000Y-109220000D02*
X119380000Y-111760000D01*
X119380000Y-111760000D02*
X119380000Y-114300000D01*
X144780000Y-77470000D02*
X144780000Y-74930000D01*
X93980000Y-59690000D02*
X93980000Y-62230000D01*
X93980000Y-87630000D02*
X93980000Y-90170000D01*
X93980000Y-107950000D02*
X93980000Y-110490000D01*
X144780000Y-97790000D02*
X144780000Y-92710000D01*
X144780000Y-113030000D02*
X138430000Y-119380000D01*
X144780000Y-74930000D02*
X144780000Y-72390000D01*
X93980000Y-102870000D02*
X93980000Y-105410000D01*
X93980000Y-105410000D02*
X93980000Y-107950000D01*
X144780000Y-52070000D02*
X144780000Y-46990000D01*
X93980000Y-100330000D02*
X93980000Y-102870000D01*
X144780000Y-105410000D02*
X144780000Y-102870000D01*
X144780000Y-102870000D02*
X144780000Y-100330000D01*
X144780000Y-100330000D02*
X144780000Y-97790000D01*
X93980000Y-72390000D02*
X93980000Y-74930000D01*
X144780000Y-67310000D02*
X144780000Y-62230000D01*
X144780000Y-87630000D02*
X144780000Y-85090000D01*
X144780000Y-54610000D02*
X144780000Y-52070000D01*
X138430000Y-119380000D02*
X100330000Y-119380000D01*
X119380000Y-116840000D02*
X119380000Y-119380000D01*
X144780000Y-62230000D02*
X144780000Y-59690000D01*
X119380000Y-114300000D02*
X119380000Y-116840000D01*
X93980000Y-54610000D02*
X93980000Y-57150000D01*
X144780000Y-107950000D02*
X144780000Y-110490000D01*
X144780000Y-92710000D02*
X144780000Y-90170000D01*
X100330000Y-119380000D02*
X93980000Y-113030000D01*
X144780000Y-110490000D02*
X144780000Y-113030000D01*
X93980000Y-69850000D02*
X93980000Y-72390000D01*
X144780000Y-90170000D02*
X144780000Y-87630000D01*
X93980000Y-85090000D02*
X93980000Y-87630000D01*
X144780000Y-85090000D02*
X144780000Y-82550000D01*
X144780000Y-59690000D02*
X144780000Y-57150000D01*
X144780000Y-69850000D02*
X144780000Y-67310000D01*
X144780000Y-72390000D02*
X144780000Y-69850000D01*
X93980000Y-113030000D02*
X93980000Y-110490000D01*
X93980000Y-57150000D02*
X93980000Y-59690000D01*
X93980000Y-74930000D02*
X93980000Y-77470000D01*
X144780000Y-46990000D02*
X144780000Y-44450000D01*
X93980000Y-44450000D02*
X93980000Y-46990000D01*
X144780000Y-107950000D02*
X144780000Y-105410000D01*
X93980000Y-90170000D02*
X93980000Y-92710000D01*
X144780000Y-57150000D02*
X144780000Y-54610000D01*
X144780000Y-82550000D02*
X144780000Y-77470000D01*
%TD*%
D14*
X88900000Y-118110000D02*
X88900000Y-39370000D01*
X144780000Y-120650000D02*
X91440000Y-120650000D01*
X91440000Y-120650000D02*
G75*
G02*
X88900000Y-118110000I0J2540000D01*
G01*
X91440000Y-36830000D02*
X144780000Y-36830000D01*
X147320000Y-39370000D02*
X147320000Y-118110000D01*
X147320000Y-118110000D02*
G75*
G02*
X144780000Y-120650000I-2540000J0D01*
G01*
X88900000Y-39370000D02*
G75*
G02*
X91440000Y-36830000I2540000J0D01*
G01*
X144780000Y-36830000D02*
G75*
G02*
X147320000Y-39370000I0J-2540000D01*
G01*
M02*
