G04 #@! TF.FileFunction,Soldermask,Top*
%FSLAX46Y46*%
G04 Gerber Fmt 4.6, Leading zero omitted, Abs format (unit mm)*
G04 Created by KiCad (PCBNEW 0.201504131001+5595~22~ubuntu14.10.1-product) date Tue Apr 14 18:26:33 2015*
%MOMM*%
G01*
G04 APERTURE LIST*
%ADD10C,0.100000*%
%ADD11C,2.032000*%
G04 APERTURE END LIST*
D10*
X91440000Y-118110000D02*
G75*
G03X93980000Y-120650000I2540000J0D01*
G01*
X142240000Y-120650000D02*
G75*
G03X144780000Y-118110000I0J2540000D01*
G01*
X144780000Y-41910000D02*
G75*
G03X142240000Y-39370000I-2540000J0D01*
G01*
X93980000Y-39370000D02*
G75*
G03X91440000Y-41910000I0J-2540000D01*
G01*
X91440000Y-118110000D02*
X91440000Y-41910000D01*
X142240000Y-120650000D02*
X93980000Y-120650000D01*
X144780000Y-41910000D02*
X144780000Y-118110000D01*
X93980000Y-39370000D02*
X142240000Y-39370000D01*
D11*
X121920000Y-111760000D03*
X124460000Y-111760000D03*
X127000000Y-111760000D03*
X132080000Y-111760000D03*
X129540000Y-111760000D03*
X121920000Y-114300000D03*
X124460000Y-114300000D03*
X127000000Y-114300000D03*
X132080000Y-114300000D03*
X129540000Y-114300000D03*
X129540000Y-116840000D03*
X132080000Y-116840000D03*
X127000000Y-116840000D03*
X124460000Y-116840000D03*
X121920000Y-116840000D03*
X129540000Y-99060000D03*
X132080000Y-99060000D03*
X127000000Y-99060000D03*
X124460000Y-99060000D03*
X121920000Y-99060000D03*
X121920000Y-109220000D03*
X124460000Y-109220000D03*
X127000000Y-109220000D03*
X132080000Y-109220000D03*
X129540000Y-109220000D03*
X129540000Y-106680000D03*
X132080000Y-106680000D03*
X127000000Y-106680000D03*
X124460000Y-106680000D03*
X121920000Y-106680000D03*
X121920000Y-101600000D03*
X124460000Y-101600000D03*
X127000000Y-101600000D03*
X132080000Y-101600000D03*
X129540000Y-101600000D03*
X129540000Y-104140000D03*
X132080000Y-104140000D03*
X127000000Y-104140000D03*
X124460000Y-104140000D03*
X121920000Y-104140000D03*
X121920000Y-91440000D03*
X124460000Y-91440000D03*
X127000000Y-91440000D03*
X132080000Y-91440000D03*
X129540000Y-91440000D03*
X129540000Y-88900000D03*
X132080000Y-88900000D03*
X127000000Y-88900000D03*
X124460000Y-88900000D03*
X121920000Y-88900000D03*
X121920000Y-93980000D03*
X124460000Y-93980000D03*
X127000000Y-93980000D03*
X132080000Y-93980000D03*
X129540000Y-93980000D03*
X129540000Y-96520000D03*
X132080000Y-96520000D03*
X127000000Y-96520000D03*
X124460000Y-96520000D03*
X121920000Y-96520000D03*
X121920000Y-86360000D03*
X124460000Y-86360000D03*
X127000000Y-86360000D03*
X132080000Y-86360000D03*
X129540000Y-86360000D03*
X129540000Y-83820000D03*
X132080000Y-83820000D03*
X127000000Y-83820000D03*
X124460000Y-83820000D03*
X121920000Y-83820000D03*
X121920000Y-66040000D03*
X124460000Y-66040000D03*
X127000000Y-66040000D03*
X132080000Y-66040000D03*
X129540000Y-66040000D03*
X129540000Y-63500000D03*
X132080000Y-63500000D03*
X127000000Y-63500000D03*
X124460000Y-63500000D03*
X121920000Y-63500000D03*
X121920000Y-68580000D03*
X124460000Y-68580000D03*
X127000000Y-68580000D03*
X132080000Y-68580000D03*
X129540000Y-68580000D03*
X129540000Y-71120000D03*
X132080000Y-71120000D03*
X127000000Y-71120000D03*
X124460000Y-71120000D03*
X121920000Y-71120000D03*
X121920000Y-81280000D03*
X124460000Y-81280000D03*
X127000000Y-81280000D03*
X132080000Y-81280000D03*
X129540000Y-81280000D03*
X129540000Y-78740000D03*
X132080000Y-78740000D03*
X127000000Y-78740000D03*
X124460000Y-78740000D03*
X121920000Y-78740000D03*
X121920000Y-73660000D03*
X124460000Y-73660000D03*
X127000000Y-73660000D03*
X132080000Y-73660000D03*
X129540000Y-73660000D03*
X129540000Y-76200000D03*
X132080000Y-76200000D03*
X127000000Y-76200000D03*
X124460000Y-76200000D03*
X121920000Y-76200000D03*
X121920000Y-55880000D03*
X124460000Y-55880000D03*
X127000000Y-55880000D03*
X132080000Y-55880000D03*
X129540000Y-55880000D03*
X129540000Y-53340000D03*
X132080000Y-53340000D03*
X127000000Y-53340000D03*
X124460000Y-53340000D03*
X121920000Y-53340000D03*
X121920000Y-58420000D03*
X124460000Y-58420000D03*
X127000000Y-58420000D03*
X132080000Y-58420000D03*
X129540000Y-58420000D03*
X129540000Y-60960000D03*
X132080000Y-60960000D03*
X127000000Y-60960000D03*
X124460000Y-60960000D03*
X121920000Y-60960000D03*
X121920000Y-50800000D03*
X124460000Y-50800000D03*
X127000000Y-50800000D03*
X132080000Y-50800000D03*
X129540000Y-50800000D03*
X129540000Y-48260000D03*
X132080000Y-48260000D03*
X127000000Y-48260000D03*
X124460000Y-48260000D03*
X121920000Y-48260000D03*
X121920000Y-43180000D03*
X124460000Y-43180000D03*
X127000000Y-43180000D03*
X132080000Y-43180000D03*
X129540000Y-43180000D03*
X129540000Y-45720000D03*
X132080000Y-45720000D03*
X127000000Y-45720000D03*
X124460000Y-45720000D03*
X121920000Y-45720000D03*
X114300000Y-83820000D03*
X111760000Y-83820000D03*
X109220000Y-83820000D03*
X104140000Y-83820000D03*
X106680000Y-83820000D03*
X106680000Y-86360000D03*
X104140000Y-86360000D03*
X109220000Y-86360000D03*
X111760000Y-86360000D03*
X114300000Y-86360000D03*
X114300000Y-91440000D03*
X111760000Y-91440000D03*
X109220000Y-91440000D03*
X104140000Y-91440000D03*
X106680000Y-91440000D03*
X106680000Y-88900000D03*
X104140000Y-88900000D03*
X109220000Y-88900000D03*
X111760000Y-88900000D03*
X114300000Y-88900000D03*
X114300000Y-99060000D03*
X111760000Y-99060000D03*
X109220000Y-99060000D03*
X104140000Y-99060000D03*
X106680000Y-99060000D03*
X106680000Y-101600000D03*
X104140000Y-101600000D03*
X109220000Y-101600000D03*
X111760000Y-101600000D03*
X114300000Y-101600000D03*
X114300000Y-96520000D03*
X111760000Y-96520000D03*
X109220000Y-96520000D03*
X104140000Y-96520000D03*
X106680000Y-96520000D03*
X106680000Y-93980000D03*
X104140000Y-93980000D03*
X109220000Y-93980000D03*
X111760000Y-93980000D03*
X114300000Y-93980000D03*
X114300000Y-114300000D03*
X111760000Y-114300000D03*
X109220000Y-114300000D03*
X104140000Y-114300000D03*
X106680000Y-114300000D03*
X106680000Y-116840000D03*
X104140000Y-116840000D03*
X109220000Y-116840000D03*
X111760000Y-116840000D03*
X114300000Y-116840000D03*
X114300000Y-109220000D03*
X111760000Y-109220000D03*
X109220000Y-109220000D03*
X104140000Y-109220000D03*
X106680000Y-109220000D03*
X106680000Y-111760000D03*
X104140000Y-111760000D03*
X109220000Y-111760000D03*
X111760000Y-111760000D03*
X114300000Y-111760000D03*
X114300000Y-106680000D03*
X111760000Y-106680000D03*
X109220000Y-106680000D03*
X104140000Y-106680000D03*
X106680000Y-106680000D03*
X106680000Y-104140000D03*
X104140000Y-104140000D03*
X109220000Y-104140000D03*
X111760000Y-104140000D03*
X114300000Y-104140000D03*
X114300000Y-63500000D03*
X111760000Y-63500000D03*
X109220000Y-63500000D03*
X104140000Y-63500000D03*
X106680000Y-63500000D03*
X106680000Y-66040000D03*
X104140000Y-66040000D03*
X109220000Y-66040000D03*
X111760000Y-66040000D03*
X114300000Y-66040000D03*
X114300000Y-71120000D03*
X111760000Y-71120000D03*
X109220000Y-71120000D03*
X104140000Y-71120000D03*
X106680000Y-71120000D03*
X106680000Y-68580000D03*
X104140000Y-68580000D03*
X109220000Y-68580000D03*
X111760000Y-68580000D03*
X114300000Y-68580000D03*
X114300000Y-78740000D03*
X111760000Y-78740000D03*
X109220000Y-78740000D03*
X104140000Y-78740000D03*
X106680000Y-78740000D03*
X106680000Y-81280000D03*
X104140000Y-81280000D03*
X109220000Y-81280000D03*
X111760000Y-81280000D03*
X114300000Y-81280000D03*
X114300000Y-76200000D03*
X111760000Y-76200000D03*
X109220000Y-76200000D03*
X104140000Y-76200000D03*
X106680000Y-76200000D03*
X106680000Y-73660000D03*
X104140000Y-73660000D03*
X109220000Y-73660000D03*
X111760000Y-73660000D03*
X114300000Y-73660000D03*
X114300000Y-53340000D03*
X111760000Y-53340000D03*
X109220000Y-53340000D03*
X104140000Y-53340000D03*
X106680000Y-53340000D03*
X106680000Y-55880000D03*
X104140000Y-55880000D03*
X109220000Y-55880000D03*
X111760000Y-55880000D03*
X114300000Y-55880000D03*
X114300000Y-60960000D03*
X111760000Y-60960000D03*
X109220000Y-60960000D03*
X104140000Y-60960000D03*
X106680000Y-60960000D03*
X106680000Y-58420000D03*
X104140000Y-58420000D03*
X109220000Y-58420000D03*
X111760000Y-58420000D03*
X114300000Y-58420000D03*
X114300000Y-48260000D03*
X111760000Y-48260000D03*
X109220000Y-48260000D03*
X104140000Y-48260000D03*
X106680000Y-48260000D03*
X106680000Y-50800000D03*
X104140000Y-50800000D03*
X109220000Y-50800000D03*
X111760000Y-50800000D03*
X114300000Y-50800000D03*
X114300000Y-45720000D03*
X111760000Y-45720000D03*
X109220000Y-45720000D03*
X104140000Y-45720000D03*
X106680000Y-45720000D03*
X106680000Y-43180000D03*
X104140000Y-43180000D03*
X109220000Y-43180000D03*
X111760000Y-43180000D03*
X114300000Y-43180000D03*
X93980000Y-115570000D03*
X96520000Y-115570000D03*
X96520000Y-113030000D03*
X93980000Y-113030000D03*
X93980000Y-107950000D03*
X96520000Y-107950000D03*
X96520000Y-110490000D03*
X93980000Y-110490000D03*
X93980000Y-100330000D03*
X96520000Y-100330000D03*
X96520000Y-97790000D03*
X93980000Y-97790000D03*
X96520000Y-105410000D03*
X93980000Y-105410000D03*
X93980000Y-85090000D03*
X96520000Y-85090000D03*
X96520000Y-82550000D03*
X93980000Y-82550000D03*
X93980000Y-77470000D03*
X96520000Y-77470000D03*
X96520000Y-80010000D03*
X93980000Y-80010000D03*
X93980000Y-90170000D03*
X96520000Y-90170000D03*
X93980000Y-92710000D03*
X96520000Y-92710000D03*
X96520000Y-95250000D03*
X93980000Y-95250000D03*
X93980000Y-54610000D03*
X96520000Y-54610000D03*
X96520000Y-52070000D03*
X93980000Y-52070000D03*
X93980000Y-46990000D03*
X96520000Y-46990000D03*
X96520000Y-49530000D03*
X93980000Y-49530000D03*
X96520000Y-44450000D03*
X93980000Y-44450000D03*
X93980000Y-64770000D03*
X96520000Y-64770000D03*
X96520000Y-62230000D03*
X93980000Y-62230000D03*
X96520000Y-59690000D03*
X93980000Y-59690000D03*
X93980000Y-69850000D03*
X96520000Y-69850000D03*
X96520000Y-67310000D03*
X93980000Y-67310000D03*
X96520000Y-74930000D03*
X93980000Y-74930000D03*
X142240000Y-74930000D03*
X139700000Y-74930000D03*
X142240000Y-67310000D03*
X139700000Y-67310000D03*
X139700000Y-69850000D03*
X142240000Y-69850000D03*
X142240000Y-59690000D03*
X139700000Y-59690000D03*
X142240000Y-62230000D03*
X139700000Y-62230000D03*
X139700000Y-64770000D03*
X142240000Y-64770000D03*
X142240000Y-44450000D03*
X139700000Y-44450000D03*
X142240000Y-49530000D03*
X139700000Y-49530000D03*
X139700000Y-46990000D03*
X142240000Y-46990000D03*
X142240000Y-52070000D03*
X139700000Y-52070000D03*
X139700000Y-54610000D03*
X142240000Y-54610000D03*
X142240000Y-95250000D03*
X139700000Y-95250000D03*
X139700000Y-92710000D03*
X142240000Y-92710000D03*
X139700000Y-90170000D03*
X142240000Y-90170000D03*
X142240000Y-80010000D03*
X139700000Y-80010000D03*
X139700000Y-77470000D03*
X142240000Y-77470000D03*
X142240000Y-82550000D03*
X139700000Y-82550000D03*
X139700000Y-85090000D03*
X142240000Y-85090000D03*
X142240000Y-105410000D03*
X139700000Y-105410000D03*
X142240000Y-97790000D03*
X139700000Y-97790000D03*
X139700000Y-100330000D03*
X142240000Y-100330000D03*
X142240000Y-110490000D03*
X139700000Y-110490000D03*
X139700000Y-107950000D03*
X142240000Y-107950000D03*
X142240000Y-113030000D03*
X139700000Y-113030000D03*
X139700000Y-115570000D03*
X142240000Y-115570000D03*
M02*
