G04 #@! TF.FileFunction,Legend,Bot*
%FSLAX46Y46*%
G04 Gerber Fmt 4.6, Leading zero omitted, Abs format (unit mm)*
G04 Created by KiCad (PCBNEW 0.201504131001+5595~22~ubuntu14.10.1-product) date Tue Apr 14 18:26:33 2015*
%MOMM*%
G01*
G04 APERTURE LIST*
%ADD10C,0.100000*%
%ADD11C,0.304800*%
%ADD12C,0.300000*%
%ADD13C,2.032000*%
G04 APERTURE END LIST*
D10*
D11*
X104502857Y-40894000D02*
X103777143Y-40894000D01*
X104648000Y-41329429D02*
X104140000Y-39805429D01*
X103632000Y-41329429D01*
X106571143Y-40531143D02*
X106353429Y-40603714D01*
X106280857Y-40676286D01*
X106208286Y-40821429D01*
X106208286Y-41039143D01*
X106280857Y-41184286D01*
X106353429Y-41256857D01*
X106498571Y-41329429D01*
X107079143Y-41329429D01*
X107079143Y-39805429D01*
X106571143Y-39805429D01*
X106426000Y-39878000D01*
X106353429Y-39950571D01*
X106280857Y-40095714D01*
X106280857Y-40240857D01*
X106353429Y-40386000D01*
X106426000Y-40458571D01*
X106571143Y-40531143D01*
X107079143Y-40531143D01*
X108748286Y-41184286D02*
X108820857Y-41256857D01*
X109038571Y-41329429D01*
X109183714Y-41329429D01*
X109401429Y-41256857D01*
X109546571Y-41111714D01*
X109619143Y-40966571D01*
X109691714Y-40676286D01*
X109691714Y-40458571D01*
X109619143Y-40168286D01*
X109546571Y-40023143D01*
X109401429Y-39878000D01*
X109183714Y-39805429D01*
X109038571Y-39805429D01*
X108820857Y-39878000D01*
X108748286Y-39950571D01*
X112159143Y-41329429D02*
X112159143Y-39805429D01*
X111796286Y-39805429D01*
X111578571Y-39878000D01*
X111433429Y-40023143D01*
X111360857Y-40168286D01*
X111288286Y-40458571D01*
X111288286Y-40676286D01*
X111360857Y-40966571D01*
X111433429Y-41111714D01*
X111578571Y-41256857D01*
X111796286Y-41329429D01*
X112159143Y-41329429D01*
X114626571Y-40531143D02*
X114118571Y-40531143D01*
X113900857Y-41329429D02*
X114626571Y-41329429D01*
X114626571Y-39805429D01*
X113900857Y-39805429D01*
X121702286Y-40531143D02*
X122210286Y-40531143D01*
X122210286Y-41329429D02*
X122210286Y-39805429D01*
X121484572Y-39805429D01*
X124060857Y-39878000D02*
X124206000Y-39805429D01*
X124423714Y-39805429D01*
X124641429Y-39878000D01*
X124786571Y-40023143D01*
X124859143Y-40168286D01*
X124931714Y-40458571D01*
X124931714Y-40676286D01*
X124859143Y-40966571D01*
X124786571Y-41111714D01*
X124641429Y-41256857D01*
X124423714Y-41329429D01*
X124278571Y-41329429D01*
X124060857Y-41256857D01*
X123988286Y-41184286D01*
X123988286Y-40676286D01*
X124278571Y-40676286D01*
X127435428Y-41329429D02*
X127435428Y-39805429D01*
X127435428Y-40531143D02*
X126564571Y-40531143D01*
X126564571Y-41329429D02*
X126564571Y-39805429D01*
X129540000Y-41329429D02*
X129540000Y-39805429D01*
X131862285Y-39805429D02*
X131862285Y-40894000D01*
X131934857Y-41111714D01*
X132080000Y-41256857D01*
X132297714Y-41329429D01*
X132442857Y-41329429D01*
X140280571Y-40748857D02*
X139119428Y-40748857D01*
X139699999Y-41329429D02*
X139699999Y-40168286D01*
X142820571Y-40748857D02*
X141659428Y-40748857D01*
X97100571Y-40748857D02*
X95939428Y-40748857D01*
X94560571Y-40748857D02*
X93399428Y-40748857D01*
X93979999Y-41329429D02*
X93979999Y-40168286D01*
X94560571Y-119488857D02*
X93399428Y-119488857D01*
X93979999Y-120069429D02*
X93979999Y-118908286D01*
X97100571Y-119488857D02*
X95939428Y-119488857D01*
X142820571Y-119488857D02*
X141659428Y-119488857D01*
X140280571Y-119488857D02*
X139119428Y-119488857D01*
X139699999Y-120069429D02*
X139699999Y-118908286D01*
X131862285Y-118545429D02*
X131862285Y-119634000D01*
X131934857Y-119851714D01*
X132080000Y-119996857D01*
X132297714Y-120069429D01*
X132442857Y-120069429D01*
X129540000Y-120069429D02*
X129540000Y-118545429D01*
X127435428Y-120069429D02*
X127435428Y-118545429D01*
X127435428Y-119271143D02*
X126564571Y-119271143D01*
X126564571Y-120069429D02*
X126564571Y-118545429D01*
X124060857Y-118618000D02*
X124206000Y-118545429D01*
X124423714Y-118545429D01*
X124641429Y-118618000D01*
X124786571Y-118763143D01*
X124859143Y-118908286D01*
X124931714Y-119198571D01*
X124931714Y-119416286D01*
X124859143Y-119706571D01*
X124786571Y-119851714D01*
X124641429Y-119996857D01*
X124423714Y-120069429D01*
X124278571Y-120069429D01*
X124060857Y-119996857D01*
X123988286Y-119924286D01*
X123988286Y-119416286D01*
X124278571Y-119416286D01*
X121702286Y-119271143D02*
X122210286Y-119271143D01*
X122210286Y-120069429D02*
X122210286Y-118545429D01*
X121484572Y-118545429D01*
X114626571Y-119271143D02*
X114118571Y-119271143D01*
X113900857Y-120069429D02*
X114626571Y-120069429D01*
X114626571Y-118545429D01*
X113900857Y-118545429D01*
X112159143Y-120069429D02*
X112159143Y-118545429D01*
X111796286Y-118545429D01*
X111578571Y-118618000D01*
X111433429Y-118763143D01*
X111360857Y-118908286D01*
X111288286Y-119198571D01*
X111288286Y-119416286D01*
X111360857Y-119706571D01*
X111433429Y-119851714D01*
X111578571Y-119996857D01*
X111796286Y-120069429D01*
X112159143Y-120069429D01*
X108748286Y-119924286D02*
X108820857Y-119996857D01*
X109038571Y-120069429D01*
X109183714Y-120069429D01*
X109401429Y-119996857D01*
X109546571Y-119851714D01*
X109619143Y-119706571D01*
X109691714Y-119416286D01*
X109691714Y-119198571D01*
X109619143Y-118908286D01*
X109546571Y-118763143D01*
X109401429Y-118618000D01*
X109183714Y-118545429D01*
X109038571Y-118545429D01*
X108820857Y-118618000D01*
X108748286Y-118690571D01*
X106571143Y-119271143D02*
X106353429Y-119343714D01*
X106280857Y-119416286D01*
X106208286Y-119561429D01*
X106208286Y-119779143D01*
X106280857Y-119924286D01*
X106353429Y-119996857D01*
X106498571Y-120069429D01*
X107079143Y-120069429D01*
X107079143Y-118545429D01*
X106571143Y-118545429D01*
X106426000Y-118618000D01*
X106353429Y-118690571D01*
X106280857Y-118835714D01*
X106280857Y-118980857D01*
X106353429Y-119126000D01*
X106426000Y-119198571D01*
X106571143Y-119271143D01*
X107079143Y-119271143D01*
X104502857Y-119634000D02*
X103777143Y-119634000D01*
X104648000Y-120069429D02*
X104140000Y-118545429D01*
X103632000Y-120069429D01*
X102833715Y-116005429D02*
X101890286Y-116005429D01*
X102398286Y-116586000D01*
X102180572Y-116586000D01*
X102035429Y-116658571D01*
X101962858Y-116731143D01*
X101890286Y-116876286D01*
X101890286Y-117239143D01*
X101962858Y-117384286D01*
X102035429Y-117456857D01*
X102180572Y-117529429D01*
X102616000Y-117529429D01*
X102761143Y-117456857D01*
X102833715Y-117384286D01*
X100946857Y-116005429D02*
X100801714Y-116005429D01*
X100656571Y-116078000D01*
X100584000Y-116150571D01*
X100511429Y-116295714D01*
X100438857Y-116586000D01*
X100438857Y-116948857D01*
X100511429Y-117239143D01*
X100584000Y-117384286D01*
X100656571Y-117456857D01*
X100801714Y-117529429D01*
X100946857Y-117529429D01*
X101092000Y-117456857D01*
X101164571Y-117384286D01*
X101237143Y-117239143D01*
X101309714Y-116948857D01*
X101309714Y-116586000D01*
X101237143Y-116295714D01*
X101164571Y-116150571D01*
X101092000Y-116078000D01*
X100946857Y-116005429D01*
X102761143Y-103450571D02*
X102688572Y-103378000D01*
X102543429Y-103305429D01*
X102180572Y-103305429D01*
X102035429Y-103378000D01*
X101962858Y-103450571D01*
X101890286Y-103595714D01*
X101890286Y-103740857D01*
X101962858Y-103958571D01*
X102833715Y-104829429D01*
X101890286Y-104829429D01*
X100511429Y-103305429D02*
X101237143Y-103305429D01*
X101309714Y-104031143D01*
X101237143Y-103958571D01*
X101092000Y-103886000D01*
X100729143Y-103886000D01*
X100584000Y-103958571D01*
X100511429Y-104031143D01*
X100438857Y-104176286D01*
X100438857Y-104539143D01*
X100511429Y-104684286D01*
X100584000Y-104756857D01*
X100729143Y-104829429D01*
X101092000Y-104829429D01*
X101237143Y-104756857D01*
X101309714Y-104684286D01*
X134184571Y-43869429D02*
X135055428Y-43869429D01*
X134620000Y-43869429D02*
X134620000Y-42345429D01*
X134765143Y-42563143D01*
X134910285Y-42708286D01*
X135055428Y-42780857D01*
X134257143Y-52505429D02*
X134982857Y-52505429D01*
X135055428Y-53231143D01*
X134982857Y-53158571D01*
X134837714Y-53086000D01*
X134474857Y-53086000D01*
X134329714Y-53158571D01*
X134257143Y-53231143D01*
X134184571Y-53376286D01*
X134184571Y-53739143D01*
X134257143Y-53884286D01*
X134329714Y-53956857D01*
X134474857Y-54029429D01*
X134837714Y-54029429D01*
X134982857Y-53956857D01*
X135055428Y-53884286D01*
X134910286Y-66729429D02*
X135781143Y-66729429D01*
X135345715Y-66729429D02*
X135345715Y-65205429D01*
X135490858Y-65423143D01*
X135636000Y-65568286D01*
X135781143Y-65640857D01*
X133966857Y-65205429D02*
X133821714Y-65205429D01*
X133676571Y-65278000D01*
X133604000Y-65350571D01*
X133531429Y-65495714D01*
X133458857Y-65786000D01*
X133458857Y-66148857D01*
X133531429Y-66439143D01*
X133604000Y-66584286D01*
X133676571Y-66656857D01*
X133821714Y-66729429D01*
X133966857Y-66729429D01*
X134112000Y-66656857D01*
X134184571Y-66584286D01*
X134257143Y-66439143D01*
X134329714Y-66148857D01*
X134329714Y-65786000D01*
X134257143Y-65495714D01*
X134184571Y-65350571D01*
X134112000Y-65278000D01*
X133966857Y-65205429D01*
X134910286Y-79429429D02*
X135781143Y-79429429D01*
X135345715Y-79429429D02*
X135345715Y-77905429D01*
X135490858Y-78123143D01*
X135636000Y-78268286D01*
X135781143Y-78340857D01*
X133531429Y-77905429D02*
X134257143Y-77905429D01*
X134329714Y-78631143D01*
X134257143Y-78558571D01*
X134112000Y-78486000D01*
X133749143Y-78486000D01*
X133604000Y-78558571D01*
X133531429Y-78631143D01*
X133458857Y-78776286D01*
X133458857Y-79139143D01*
X133531429Y-79284286D01*
X133604000Y-79356857D01*
X133749143Y-79429429D01*
X134112000Y-79429429D01*
X134257143Y-79356857D01*
X134329714Y-79284286D01*
X135781143Y-90750571D02*
X135708572Y-90678000D01*
X135563429Y-90605429D01*
X135200572Y-90605429D01*
X135055429Y-90678000D01*
X134982858Y-90750571D01*
X134910286Y-90895714D01*
X134910286Y-91040857D01*
X134982858Y-91258571D01*
X135853715Y-92129429D01*
X134910286Y-92129429D01*
X133966857Y-90605429D02*
X133821714Y-90605429D01*
X133676571Y-90678000D01*
X133604000Y-90750571D01*
X133531429Y-90895714D01*
X133458857Y-91186000D01*
X133458857Y-91548857D01*
X133531429Y-91839143D01*
X133604000Y-91984286D01*
X133676571Y-92056857D01*
X133821714Y-92129429D01*
X133966857Y-92129429D01*
X134112000Y-92056857D01*
X134184571Y-91984286D01*
X134257143Y-91839143D01*
X134329714Y-91548857D01*
X134329714Y-91186000D01*
X134257143Y-90895714D01*
X134184571Y-90750571D01*
X134112000Y-90678000D01*
X133966857Y-90605429D01*
X135781143Y-103450571D02*
X135708572Y-103378000D01*
X135563429Y-103305429D01*
X135200572Y-103305429D01*
X135055429Y-103378000D01*
X134982858Y-103450571D01*
X134910286Y-103595714D01*
X134910286Y-103740857D01*
X134982858Y-103958571D01*
X135853715Y-104829429D01*
X134910286Y-104829429D01*
X133531429Y-103305429D02*
X134257143Y-103305429D01*
X134329714Y-104031143D01*
X134257143Y-103958571D01*
X134112000Y-103886000D01*
X133749143Y-103886000D01*
X133604000Y-103958571D01*
X133531429Y-104031143D01*
X133458857Y-104176286D01*
X133458857Y-104539143D01*
X133531429Y-104684286D01*
X133604000Y-104756857D01*
X133749143Y-104829429D01*
X134112000Y-104829429D01*
X134257143Y-104756857D01*
X134329714Y-104684286D01*
X135853715Y-116005429D02*
X134910286Y-116005429D01*
X135418286Y-116586000D01*
X135200572Y-116586000D01*
X135055429Y-116658571D01*
X134982858Y-116731143D01*
X134910286Y-116876286D01*
X134910286Y-117239143D01*
X134982858Y-117384286D01*
X135055429Y-117456857D01*
X135200572Y-117529429D01*
X135636000Y-117529429D01*
X135781143Y-117456857D01*
X135853715Y-117384286D01*
X133966857Y-116005429D02*
X133821714Y-116005429D01*
X133676571Y-116078000D01*
X133604000Y-116150571D01*
X133531429Y-116295714D01*
X133458857Y-116586000D01*
X133458857Y-116948857D01*
X133531429Y-117239143D01*
X133604000Y-117384286D01*
X133676571Y-117456857D01*
X133821714Y-117529429D01*
X133966857Y-117529429D01*
X134112000Y-117456857D01*
X134184571Y-117384286D01*
X134257143Y-117239143D01*
X134329714Y-116948857D01*
X134329714Y-116586000D01*
X134257143Y-116295714D01*
X134184571Y-116150571D01*
X134112000Y-116078000D01*
X133966857Y-116005429D01*
X102761143Y-90750571D02*
X102688572Y-90678000D01*
X102543429Y-90605429D01*
X102180572Y-90605429D01*
X102035429Y-90678000D01*
X101962858Y-90750571D01*
X101890286Y-90895714D01*
X101890286Y-91040857D01*
X101962858Y-91258571D01*
X102833715Y-92129429D01*
X101890286Y-92129429D01*
X100946857Y-90605429D02*
X100801714Y-90605429D01*
X100656571Y-90678000D01*
X100584000Y-90750571D01*
X100511429Y-90895714D01*
X100438857Y-91186000D01*
X100438857Y-91548857D01*
X100511429Y-91839143D01*
X100584000Y-91984286D01*
X100656571Y-92056857D01*
X100801714Y-92129429D01*
X100946857Y-92129429D01*
X101092000Y-92056857D01*
X101164571Y-91984286D01*
X101237143Y-91839143D01*
X101309714Y-91548857D01*
X101309714Y-91186000D01*
X101237143Y-90895714D01*
X101164571Y-90750571D01*
X101092000Y-90678000D01*
X100946857Y-90605429D01*
X101890286Y-79429429D02*
X102761143Y-79429429D01*
X102325715Y-79429429D02*
X102325715Y-77905429D01*
X102470858Y-78123143D01*
X102616000Y-78268286D01*
X102761143Y-78340857D01*
X100511429Y-77905429D02*
X101237143Y-77905429D01*
X101309714Y-78631143D01*
X101237143Y-78558571D01*
X101092000Y-78486000D01*
X100729143Y-78486000D01*
X100584000Y-78558571D01*
X100511429Y-78631143D01*
X100438857Y-78776286D01*
X100438857Y-79139143D01*
X100511429Y-79284286D01*
X100584000Y-79356857D01*
X100729143Y-79429429D01*
X101092000Y-79429429D01*
X101237143Y-79356857D01*
X101309714Y-79284286D01*
X101890286Y-66729429D02*
X102761143Y-66729429D01*
X102325715Y-66729429D02*
X102325715Y-65205429D01*
X102470858Y-65423143D01*
X102616000Y-65568286D01*
X102761143Y-65640857D01*
X100946857Y-65205429D02*
X100801714Y-65205429D01*
X100656571Y-65278000D01*
X100584000Y-65350571D01*
X100511429Y-65495714D01*
X100438857Y-65786000D01*
X100438857Y-66148857D01*
X100511429Y-66439143D01*
X100584000Y-66584286D01*
X100656571Y-66656857D01*
X100801714Y-66729429D01*
X100946857Y-66729429D01*
X101092000Y-66656857D01*
X101164571Y-66584286D01*
X101237143Y-66439143D01*
X101309714Y-66148857D01*
X101309714Y-65786000D01*
X101237143Y-65495714D01*
X101164571Y-65350571D01*
X101092000Y-65278000D01*
X100946857Y-65205429D01*
X101237143Y-52505429D02*
X101962857Y-52505429D01*
X102035428Y-53231143D01*
X101962857Y-53158571D01*
X101817714Y-53086000D01*
X101454857Y-53086000D01*
X101309714Y-53158571D01*
X101237143Y-53231143D01*
X101164571Y-53376286D01*
X101164571Y-53739143D01*
X101237143Y-53884286D01*
X101309714Y-53956857D01*
X101454857Y-54029429D01*
X101817714Y-54029429D01*
X101962857Y-53956857D01*
X102035428Y-53884286D01*
X101164571Y-43869429D02*
X102035428Y-43869429D01*
X101600000Y-43869429D02*
X101600000Y-42345429D01*
X101745143Y-42563143D01*
X101890285Y-42708286D01*
X102035428Y-42780857D01*
D12*
X119066429Y-66502857D02*
X117566429Y-66502857D01*
X118995000Y-66502857D02*
X119066429Y-66360000D01*
X119066429Y-66074286D01*
X118995000Y-65931429D01*
X118923571Y-65860000D01*
X118780714Y-65788571D01*
X118352143Y-65788571D01*
X118209286Y-65860000D01*
X118137857Y-65931429D01*
X118066429Y-66074286D01*
X118066429Y-66360000D01*
X118137857Y-66502857D01*
X118066429Y-65145714D02*
X119066429Y-65145714D01*
X118780714Y-65145714D02*
X118923571Y-65074286D01*
X118995000Y-65002857D01*
X119066429Y-64860000D01*
X119066429Y-64717143D01*
X118066429Y-64002857D02*
X118137857Y-64145715D01*
X118209286Y-64217143D01*
X118352143Y-64288572D01*
X118780714Y-64288572D01*
X118923571Y-64217143D01*
X118995000Y-64145715D01*
X119066429Y-64002857D01*
X119066429Y-63788572D01*
X118995000Y-63645715D01*
X118923571Y-63574286D01*
X118780714Y-63502857D01*
X118352143Y-63502857D01*
X118209286Y-63574286D01*
X118137857Y-63645715D01*
X118066429Y-63788572D01*
X118066429Y-64002857D01*
X119066429Y-62860000D02*
X118066429Y-62860000D01*
X118923571Y-62860000D02*
X118995000Y-62788572D01*
X119066429Y-62645714D01*
X119066429Y-62431429D01*
X118995000Y-62288572D01*
X118852143Y-62217143D01*
X118066429Y-62217143D01*
X119066429Y-61717143D02*
X119066429Y-61145714D01*
X119566429Y-61502857D02*
X118280714Y-61502857D01*
X118137857Y-61431429D01*
X118066429Y-61288571D01*
X118066429Y-61145714D01*
X118066429Y-60431428D02*
X118137857Y-60574286D01*
X118209286Y-60645714D01*
X118352143Y-60717143D01*
X118780714Y-60717143D01*
X118923571Y-60645714D01*
X118995000Y-60574286D01*
X119066429Y-60431428D01*
X119066429Y-60217143D01*
X118995000Y-60074286D01*
X118923571Y-60002857D01*
X118780714Y-59931428D01*
X118352143Y-59931428D01*
X118209286Y-60002857D01*
X118137857Y-60074286D01*
X118066429Y-60217143D01*
X118066429Y-60431428D01*
X118209286Y-58145714D02*
X118137857Y-58074286D01*
X118066429Y-58145714D01*
X118137857Y-58217143D01*
X118209286Y-58145714D01*
X118066429Y-58145714D01*
X118995000Y-58145714D02*
X118923571Y-58074286D01*
X118852143Y-58145714D01*
X118923571Y-58217143D01*
X118995000Y-58145714D01*
X118852143Y-58145714D01*
X118209286Y-57431428D02*
X118137857Y-57360000D01*
X118066429Y-57431428D01*
X118137857Y-57502857D01*
X118209286Y-57431428D01*
X118066429Y-57431428D01*
X118995000Y-57431428D02*
X118923571Y-57360000D01*
X118852143Y-57431428D01*
X118923571Y-57502857D01*
X118995000Y-57431428D01*
X118852143Y-57431428D01*
X119066429Y-55717142D02*
X118066429Y-55431428D01*
X118780714Y-55145714D01*
X118066429Y-54859999D01*
X119066429Y-54574285D01*
X119066429Y-54145713D02*
X118066429Y-53788570D01*
X119066429Y-53431428D02*
X118066429Y-53788570D01*
X117709286Y-53931428D01*
X117637857Y-54002856D01*
X117566429Y-54145713D01*
X118066429Y-52645713D02*
X118137857Y-52788571D01*
X118209286Y-52859999D01*
X118352143Y-52931428D01*
X118780714Y-52931428D01*
X118923571Y-52859999D01*
X118995000Y-52788571D01*
X119066429Y-52645713D01*
X119066429Y-52431428D01*
X118995000Y-52288571D01*
X118923571Y-52217142D01*
X118780714Y-52145713D01*
X118352143Y-52145713D01*
X118209286Y-52217142D01*
X118137857Y-52288571D01*
X118066429Y-52431428D01*
X118066429Y-52645713D01*
X118066429Y-51288570D02*
X118137857Y-51431428D01*
X118280714Y-51502856D01*
X119566429Y-51502856D01*
X119066429Y-50074285D02*
X118066429Y-50074285D01*
X119066429Y-50717142D02*
X118280714Y-50717142D01*
X118137857Y-50645714D01*
X118066429Y-50502856D01*
X118066429Y-50288571D01*
X118137857Y-50145714D01*
X118209286Y-50074285D01*
X118066429Y-49359999D02*
X119066429Y-49359999D01*
X118923571Y-49359999D02*
X118995000Y-49288571D01*
X119066429Y-49145713D01*
X119066429Y-48931428D01*
X118995000Y-48788571D01*
X118852143Y-48717142D01*
X118066429Y-48717142D01*
X118852143Y-48717142D02*
X118995000Y-48645713D01*
X119066429Y-48502856D01*
X119066429Y-48288571D01*
X118995000Y-48145713D01*
X118852143Y-48074285D01*
X118066429Y-48074285D01*
X118209286Y-47359999D02*
X118137857Y-47288571D01*
X118066429Y-47359999D01*
X118137857Y-47431428D01*
X118209286Y-47359999D01*
X118066429Y-47359999D01*
X118137857Y-46002856D02*
X118066429Y-46145713D01*
X118066429Y-46431427D01*
X118137857Y-46574285D01*
X118209286Y-46645713D01*
X118352143Y-46717142D01*
X118780714Y-46717142D01*
X118923571Y-46645713D01*
X118995000Y-46574285D01*
X119066429Y-46431427D01*
X119066429Y-46145713D01*
X118995000Y-46002856D01*
X118066429Y-45145713D02*
X118137857Y-45288571D01*
X118209286Y-45359999D01*
X118352143Y-45431428D01*
X118780714Y-45431428D01*
X118923571Y-45359999D01*
X118995000Y-45288571D01*
X119066429Y-45145713D01*
X119066429Y-44931428D01*
X118995000Y-44788571D01*
X118923571Y-44717142D01*
X118780714Y-44645713D01*
X118352143Y-44645713D01*
X118209286Y-44717142D01*
X118137857Y-44788571D01*
X118066429Y-44931428D01*
X118066429Y-45145713D01*
X118066429Y-44002856D02*
X119066429Y-44002856D01*
X118923571Y-44002856D02*
X118995000Y-43931428D01*
X119066429Y-43788570D01*
X119066429Y-43574285D01*
X118995000Y-43431428D01*
X118852143Y-43359999D01*
X118066429Y-43359999D01*
X118852143Y-43359999D02*
X118995000Y-43288570D01*
X119066429Y-43145713D01*
X119066429Y-42931428D01*
X118995000Y-42788570D01*
X118852143Y-42717142D01*
X118066429Y-42717142D01*
X117788571Y-93517143D02*
X119288571Y-93517143D01*
X117860000Y-93517143D02*
X117788571Y-93660000D01*
X117788571Y-93945714D01*
X117860000Y-94088571D01*
X117931429Y-94160000D01*
X118074286Y-94231429D01*
X118502857Y-94231429D01*
X118645714Y-94160000D01*
X118717143Y-94088571D01*
X118788571Y-93945714D01*
X118788571Y-93660000D01*
X118717143Y-93517143D01*
X118788571Y-94874286D02*
X117788571Y-94874286D01*
X118074286Y-94874286D02*
X117931429Y-94945714D01*
X117860000Y-95017143D01*
X117788571Y-95160000D01*
X117788571Y-95302857D01*
X118788571Y-96017143D02*
X118717143Y-95874285D01*
X118645714Y-95802857D01*
X118502857Y-95731428D01*
X118074286Y-95731428D01*
X117931429Y-95802857D01*
X117860000Y-95874285D01*
X117788571Y-96017143D01*
X117788571Y-96231428D01*
X117860000Y-96374285D01*
X117931429Y-96445714D01*
X118074286Y-96517143D01*
X118502857Y-96517143D01*
X118645714Y-96445714D01*
X118717143Y-96374285D01*
X118788571Y-96231428D01*
X118788571Y-96017143D01*
X117788571Y-97160000D02*
X118788571Y-97160000D01*
X117931429Y-97160000D02*
X117860000Y-97231428D01*
X117788571Y-97374286D01*
X117788571Y-97588571D01*
X117860000Y-97731428D01*
X118002857Y-97802857D01*
X118788571Y-97802857D01*
X117788571Y-98302857D02*
X117788571Y-98874286D01*
X117288571Y-98517143D02*
X118574286Y-98517143D01*
X118717143Y-98588571D01*
X118788571Y-98731429D01*
X118788571Y-98874286D01*
X118788571Y-99588572D02*
X118717143Y-99445714D01*
X118645714Y-99374286D01*
X118502857Y-99302857D01*
X118074286Y-99302857D01*
X117931429Y-99374286D01*
X117860000Y-99445714D01*
X117788571Y-99588572D01*
X117788571Y-99802857D01*
X117860000Y-99945714D01*
X117931429Y-100017143D01*
X118074286Y-100088572D01*
X118502857Y-100088572D01*
X118645714Y-100017143D01*
X118717143Y-99945714D01*
X118788571Y-99802857D01*
X118788571Y-99588572D01*
X118645714Y-101874286D02*
X118717143Y-101945714D01*
X118788571Y-101874286D01*
X118717143Y-101802857D01*
X118645714Y-101874286D01*
X118788571Y-101874286D01*
X117860000Y-101874286D02*
X117931429Y-101945714D01*
X118002857Y-101874286D01*
X117931429Y-101802857D01*
X117860000Y-101874286D01*
X118002857Y-101874286D01*
X118645714Y-102588572D02*
X118717143Y-102660000D01*
X118788571Y-102588572D01*
X118717143Y-102517143D01*
X118645714Y-102588572D01*
X118788571Y-102588572D01*
X117860000Y-102588572D02*
X117931429Y-102660000D01*
X118002857Y-102588572D01*
X117931429Y-102517143D01*
X117860000Y-102588572D01*
X118002857Y-102588572D01*
X117788571Y-104302858D02*
X118788571Y-104588572D01*
X118074286Y-104874286D01*
X118788571Y-105160001D01*
X117788571Y-105445715D01*
X117788571Y-105874287D02*
X118788571Y-106231430D01*
X117788571Y-106588572D02*
X118788571Y-106231430D01*
X119145714Y-106088572D01*
X119217143Y-106017144D01*
X119288571Y-105874287D01*
X118788571Y-107374287D02*
X118717143Y-107231429D01*
X118645714Y-107160001D01*
X118502857Y-107088572D01*
X118074286Y-107088572D01*
X117931429Y-107160001D01*
X117860000Y-107231429D01*
X117788571Y-107374287D01*
X117788571Y-107588572D01*
X117860000Y-107731429D01*
X117931429Y-107802858D01*
X118074286Y-107874287D01*
X118502857Y-107874287D01*
X118645714Y-107802858D01*
X118717143Y-107731429D01*
X118788571Y-107588572D01*
X118788571Y-107374287D01*
X118788571Y-108731430D02*
X118717143Y-108588572D01*
X118574286Y-108517144D01*
X117288571Y-108517144D01*
X117788571Y-109945715D02*
X118788571Y-109945715D01*
X117788571Y-109302858D02*
X118574286Y-109302858D01*
X118717143Y-109374286D01*
X118788571Y-109517144D01*
X118788571Y-109731429D01*
X118717143Y-109874286D01*
X118645714Y-109945715D01*
X118788571Y-110660001D02*
X117788571Y-110660001D01*
X117931429Y-110660001D02*
X117860000Y-110731429D01*
X117788571Y-110874287D01*
X117788571Y-111088572D01*
X117860000Y-111231429D01*
X118002857Y-111302858D01*
X118788571Y-111302858D01*
X118002857Y-111302858D02*
X117860000Y-111374287D01*
X117788571Y-111517144D01*
X117788571Y-111731429D01*
X117860000Y-111874287D01*
X118002857Y-111945715D01*
X118788571Y-111945715D01*
X118645714Y-112660001D02*
X118717143Y-112731429D01*
X118788571Y-112660001D01*
X118717143Y-112588572D01*
X118645714Y-112660001D01*
X118788571Y-112660001D01*
X118717143Y-114017144D02*
X118788571Y-113874287D01*
X118788571Y-113588573D01*
X118717143Y-113445715D01*
X118645714Y-113374287D01*
X118502857Y-113302858D01*
X118074286Y-113302858D01*
X117931429Y-113374287D01*
X117860000Y-113445715D01*
X117788571Y-113588573D01*
X117788571Y-113874287D01*
X117860000Y-114017144D01*
X118788571Y-114874287D02*
X118717143Y-114731429D01*
X118645714Y-114660001D01*
X118502857Y-114588572D01*
X118074286Y-114588572D01*
X117931429Y-114660001D01*
X117860000Y-114731429D01*
X117788571Y-114874287D01*
X117788571Y-115088572D01*
X117860000Y-115231429D01*
X117931429Y-115302858D01*
X118074286Y-115374287D01*
X118502857Y-115374287D01*
X118645714Y-115302858D01*
X118717143Y-115231429D01*
X118788571Y-115088572D01*
X118788571Y-114874287D01*
X118788571Y-116017144D02*
X117788571Y-116017144D01*
X117931429Y-116017144D02*
X117860000Y-116088572D01*
X117788571Y-116231430D01*
X117788571Y-116445715D01*
X117860000Y-116588572D01*
X118002857Y-116660001D01*
X118788571Y-116660001D01*
X118002857Y-116660001D02*
X117860000Y-116731430D01*
X117788571Y-116874287D01*
X117788571Y-117088572D01*
X117860000Y-117231430D01*
X118002857Y-117302858D01*
X118788571Y-117302858D01*
D10*
X91440000Y-118110000D02*
G75*
G03X93980000Y-120650000I2540000J0D01*
G01*
X142240000Y-120650000D02*
G75*
G03X144780000Y-118110000I0J2540000D01*
G01*
X144780000Y-41910000D02*
G75*
G03X142240000Y-39370000I-2540000J0D01*
G01*
X93980000Y-39370000D02*
G75*
G03X91440000Y-41910000I0J-2540000D01*
G01*
X91440000Y-118110000D02*
X91440000Y-41910000D01*
X142240000Y-120650000D02*
X93980000Y-120650000D01*
X144780000Y-41910000D02*
X144780000Y-118110000D01*
X93980000Y-39370000D02*
X142240000Y-39370000D01*
%LPC*%
D13*
X121920000Y-111760000D03*
X124460000Y-111760000D03*
X127000000Y-111760000D03*
X132080000Y-111760000D03*
X129540000Y-111760000D03*
X121920000Y-114300000D03*
X124460000Y-114300000D03*
X127000000Y-114300000D03*
X132080000Y-114300000D03*
X129540000Y-114300000D03*
X129540000Y-116840000D03*
X132080000Y-116840000D03*
X127000000Y-116840000D03*
X124460000Y-116840000D03*
X121920000Y-116840000D03*
X129540000Y-99060000D03*
X132080000Y-99060000D03*
X127000000Y-99060000D03*
X124460000Y-99060000D03*
X121920000Y-99060000D03*
X121920000Y-109220000D03*
X124460000Y-109220000D03*
X127000000Y-109220000D03*
X132080000Y-109220000D03*
X129540000Y-109220000D03*
X129540000Y-106680000D03*
X132080000Y-106680000D03*
X127000000Y-106680000D03*
X124460000Y-106680000D03*
X121920000Y-106680000D03*
X121920000Y-101600000D03*
X124460000Y-101600000D03*
X127000000Y-101600000D03*
X132080000Y-101600000D03*
X129540000Y-101600000D03*
X129540000Y-104140000D03*
X132080000Y-104140000D03*
X127000000Y-104140000D03*
X124460000Y-104140000D03*
X121920000Y-104140000D03*
X121920000Y-91440000D03*
X124460000Y-91440000D03*
X127000000Y-91440000D03*
X132080000Y-91440000D03*
X129540000Y-91440000D03*
X129540000Y-88900000D03*
X132080000Y-88900000D03*
X127000000Y-88900000D03*
X124460000Y-88900000D03*
X121920000Y-88900000D03*
X121920000Y-93980000D03*
X124460000Y-93980000D03*
X127000000Y-93980000D03*
X132080000Y-93980000D03*
X129540000Y-93980000D03*
X129540000Y-96520000D03*
X132080000Y-96520000D03*
X127000000Y-96520000D03*
X124460000Y-96520000D03*
X121920000Y-96520000D03*
X121920000Y-86360000D03*
X124460000Y-86360000D03*
X127000000Y-86360000D03*
X132080000Y-86360000D03*
X129540000Y-86360000D03*
X129540000Y-83820000D03*
X132080000Y-83820000D03*
X127000000Y-83820000D03*
X124460000Y-83820000D03*
X121920000Y-83820000D03*
X121920000Y-66040000D03*
X124460000Y-66040000D03*
X127000000Y-66040000D03*
X132080000Y-66040000D03*
X129540000Y-66040000D03*
X129540000Y-63500000D03*
X132080000Y-63500000D03*
X127000000Y-63500000D03*
X124460000Y-63500000D03*
X121920000Y-63500000D03*
X121920000Y-68580000D03*
X124460000Y-68580000D03*
X127000000Y-68580000D03*
X132080000Y-68580000D03*
X129540000Y-68580000D03*
X129540000Y-71120000D03*
X132080000Y-71120000D03*
X127000000Y-71120000D03*
X124460000Y-71120000D03*
X121920000Y-71120000D03*
X121920000Y-81280000D03*
X124460000Y-81280000D03*
X127000000Y-81280000D03*
X132080000Y-81280000D03*
X129540000Y-81280000D03*
X129540000Y-78740000D03*
X132080000Y-78740000D03*
X127000000Y-78740000D03*
X124460000Y-78740000D03*
X121920000Y-78740000D03*
X121920000Y-73660000D03*
X124460000Y-73660000D03*
X127000000Y-73660000D03*
X132080000Y-73660000D03*
X129540000Y-73660000D03*
X129540000Y-76200000D03*
X132080000Y-76200000D03*
X127000000Y-76200000D03*
X124460000Y-76200000D03*
X121920000Y-76200000D03*
X121920000Y-55880000D03*
X124460000Y-55880000D03*
X127000000Y-55880000D03*
X132080000Y-55880000D03*
X129540000Y-55880000D03*
X129540000Y-53340000D03*
X132080000Y-53340000D03*
X127000000Y-53340000D03*
X124460000Y-53340000D03*
X121920000Y-53340000D03*
X121920000Y-58420000D03*
X124460000Y-58420000D03*
X127000000Y-58420000D03*
X132080000Y-58420000D03*
X129540000Y-58420000D03*
X129540000Y-60960000D03*
X132080000Y-60960000D03*
X127000000Y-60960000D03*
X124460000Y-60960000D03*
X121920000Y-60960000D03*
X121920000Y-50800000D03*
X124460000Y-50800000D03*
X127000000Y-50800000D03*
X132080000Y-50800000D03*
X129540000Y-50800000D03*
X129540000Y-48260000D03*
X132080000Y-48260000D03*
X127000000Y-48260000D03*
X124460000Y-48260000D03*
X121920000Y-48260000D03*
X121920000Y-43180000D03*
X124460000Y-43180000D03*
X127000000Y-43180000D03*
X132080000Y-43180000D03*
X129540000Y-43180000D03*
X129540000Y-45720000D03*
X132080000Y-45720000D03*
X127000000Y-45720000D03*
X124460000Y-45720000D03*
X121920000Y-45720000D03*
X114300000Y-83820000D03*
X111760000Y-83820000D03*
X109220000Y-83820000D03*
X104140000Y-83820000D03*
X106680000Y-83820000D03*
X106680000Y-86360000D03*
X104140000Y-86360000D03*
X109220000Y-86360000D03*
X111760000Y-86360000D03*
X114300000Y-86360000D03*
X114300000Y-91440000D03*
X111760000Y-91440000D03*
X109220000Y-91440000D03*
X104140000Y-91440000D03*
X106680000Y-91440000D03*
X106680000Y-88900000D03*
X104140000Y-88900000D03*
X109220000Y-88900000D03*
X111760000Y-88900000D03*
X114300000Y-88900000D03*
X114300000Y-99060000D03*
X111760000Y-99060000D03*
X109220000Y-99060000D03*
X104140000Y-99060000D03*
X106680000Y-99060000D03*
X106680000Y-101600000D03*
X104140000Y-101600000D03*
X109220000Y-101600000D03*
X111760000Y-101600000D03*
X114300000Y-101600000D03*
X114300000Y-96520000D03*
X111760000Y-96520000D03*
X109220000Y-96520000D03*
X104140000Y-96520000D03*
X106680000Y-96520000D03*
X106680000Y-93980000D03*
X104140000Y-93980000D03*
X109220000Y-93980000D03*
X111760000Y-93980000D03*
X114300000Y-93980000D03*
X114300000Y-114300000D03*
X111760000Y-114300000D03*
X109220000Y-114300000D03*
X104140000Y-114300000D03*
X106680000Y-114300000D03*
X106680000Y-116840000D03*
X104140000Y-116840000D03*
X109220000Y-116840000D03*
X111760000Y-116840000D03*
X114300000Y-116840000D03*
X114300000Y-109220000D03*
X111760000Y-109220000D03*
X109220000Y-109220000D03*
X104140000Y-109220000D03*
X106680000Y-109220000D03*
X106680000Y-111760000D03*
X104140000Y-111760000D03*
X109220000Y-111760000D03*
X111760000Y-111760000D03*
X114300000Y-111760000D03*
X114300000Y-106680000D03*
X111760000Y-106680000D03*
X109220000Y-106680000D03*
X104140000Y-106680000D03*
X106680000Y-106680000D03*
X106680000Y-104140000D03*
X104140000Y-104140000D03*
X109220000Y-104140000D03*
X111760000Y-104140000D03*
X114300000Y-104140000D03*
X114300000Y-63500000D03*
X111760000Y-63500000D03*
X109220000Y-63500000D03*
X104140000Y-63500000D03*
X106680000Y-63500000D03*
X106680000Y-66040000D03*
X104140000Y-66040000D03*
X109220000Y-66040000D03*
X111760000Y-66040000D03*
X114300000Y-66040000D03*
X114300000Y-71120000D03*
X111760000Y-71120000D03*
X109220000Y-71120000D03*
X104140000Y-71120000D03*
X106680000Y-71120000D03*
X106680000Y-68580000D03*
X104140000Y-68580000D03*
X109220000Y-68580000D03*
X111760000Y-68580000D03*
X114300000Y-68580000D03*
X114300000Y-78740000D03*
X111760000Y-78740000D03*
X109220000Y-78740000D03*
X104140000Y-78740000D03*
X106680000Y-78740000D03*
X106680000Y-81280000D03*
X104140000Y-81280000D03*
X109220000Y-81280000D03*
X111760000Y-81280000D03*
X114300000Y-81280000D03*
X114300000Y-76200000D03*
X111760000Y-76200000D03*
X109220000Y-76200000D03*
X104140000Y-76200000D03*
X106680000Y-76200000D03*
X106680000Y-73660000D03*
X104140000Y-73660000D03*
X109220000Y-73660000D03*
X111760000Y-73660000D03*
X114300000Y-73660000D03*
X114300000Y-53340000D03*
X111760000Y-53340000D03*
X109220000Y-53340000D03*
X104140000Y-53340000D03*
X106680000Y-53340000D03*
X106680000Y-55880000D03*
X104140000Y-55880000D03*
X109220000Y-55880000D03*
X111760000Y-55880000D03*
X114300000Y-55880000D03*
X114300000Y-60960000D03*
X111760000Y-60960000D03*
X109220000Y-60960000D03*
X104140000Y-60960000D03*
X106680000Y-60960000D03*
X106680000Y-58420000D03*
X104140000Y-58420000D03*
X109220000Y-58420000D03*
X111760000Y-58420000D03*
X114300000Y-58420000D03*
X114300000Y-48260000D03*
X111760000Y-48260000D03*
X109220000Y-48260000D03*
X104140000Y-48260000D03*
X106680000Y-48260000D03*
X106680000Y-50800000D03*
X104140000Y-50800000D03*
X109220000Y-50800000D03*
X111760000Y-50800000D03*
X114300000Y-50800000D03*
X114300000Y-45720000D03*
X111760000Y-45720000D03*
X109220000Y-45720000D03*
X104140000Y-45720000D03*
X106680000Y-45720000D03*
X106680000Y-43180000D03*
X104140000Y-43180000D03*
X109220000Y-43180000D03*
X111760000Y-43180000D03*
X114300000Y-43180000D03*
X93980000Y-115570000D03*
X96520000Y-115570000D03*
X96520000Y-113030000D03*
X93980000Y-113030000D03*
X93980000Y-107950000D03*
X96520000Y-107950000D03*
X96520000Y-110490000D03*
X93980000Y-110490000D03*
X93980000Y-100330000D03*
X96520000Y-100330000D03*
X96520000Y-97790000D03*
X93980000Y-97790000D03*
X96520000Y-105410000D03*
X93980000Y-105410000D03*
X93980000Y-85090000D03*
X96520000Y-85090000D03*
X96520000Y-82550000D03*
X93980000Y-82550000D03*
X93980000Y-77470000D03*
X96520000Y-77470000D03*
X96520000Y-80010000D03*
X93980000Y-80010000D03*
X93980000Y-90170000D03*
X96520000Y-90170000D03*
X93980000Y-92710000D03*
X96520000Y-92710000D03*
X96520000Y-95250000D03*
X93980000Y-95250000D03*
X93980000Y-54610000D03*
X96520000Y-54610000D03*
X96520000Y-52070000D03*
X93980000Y-52070000D03*
X93980000Y-46990000D03*
X96520000Y-46990000D03*
X96520000Y-49530000D03*
X93980000Y-49530000D03*
X96520000Y-44450000D03*
X93980000Y-44450000D03*
X93980000Y-64770000D03*
X96520000Y-64770000D03*
X96520000Y-62230000D03*
X93980000Y-62230000D03*
X96520000Y-59690000D03*
X93980000Y-59690000D03*
X93980000Y-69850000D03*
X96520000Y-69850000D03*
X96520000Y-67310000D03*
X93980000Y-67310000D03*
X96520000Y-74930000D03*
X93980000Y-74930000D03*
X142240000Y-74930000D03*
X139700000Y-74930000D03*
X142240000Y-67310000D03*
X139700000Y-67310000D03*
X139700000Y-69850000D03*
X142240000Y-69850000D03*
X142240000Y-59690000D03*
X139700000Y-59690000D03*
X142240000Y-62230000D03*
X139700000Y-62230000D03*
X139700000Y-64770000D03*
X142240000Y-64770000D03*
X142240000Y-44450000D03*
X139700000Y-44450000D03*
X142240000Y-49530000D03*
X139700000Y-49530000D03*
X139700000Y-46990000D03*
X142240000Y-46990000D03*
X142240000Y-52070000D03*
X139700000Y-52070000D03*
X139700000Y-54610000D03*
X142240000Y-54610000D03*
X142240000Y-95250000D03*
X139700000Y-95250000D03*
X139700000Y-92710000D03*
X142240000Y-92710000D03*
X139700000Y-90170000D03*
X142240000Y-90170000D03*
X142240000Y-80010000D03*
X139700000Y-80010000D03*
X139700000Y-77470000D03*
X142240000Y-77470000D03*
X142240000Y-82550000D03*
X139700000Y-82550000D03*
X139700000Y-85090000D03*
X142240000Y-85090000D03*
X142240000Y-105410000D03*
X139700000Y-105410000D03*
X142240000Y-97790000D03*
X139700000Y-97790000D03*
X139700000Y-100330000D03*
X142240000Y-100330000D03*
X142240000Y-110490000D03*
X139700000Y-110490000D03*
X139700000Y-107950000D03*
X142240000Y-107950000D03*
X142240000Y-113030000D03*
X139700000Y-113030000D03*
X139700000Y-115570000D03*
X142240000Y-115570000D03*
M02*
