G04 #@! TF.FileFunction,Legend,Bot*
%FSLAX46Y46*%
G04 Gerber Fmt 4.6, Leading zero omitted, Abs format (unit mm)*
G04 Created by KiCad (PCBNEW 0.201505061231+5645~23~ubuntu14.10.1-product) date Fri May  8 13:03:44 2015*
%MOMM*%
G01*
G04 APERTURE LIST*
%ADD10C,0.100000*%
%ADD11C,0.304800*%
%ADD12C,0.300000*%
%ADD13C,2.032000*%
G04 APERTURE END LIST*
D10*
D11*
X117420571Y-40748857D02*
X116259428Y-40748857D01*
X116839999Y-41329429D02*
X116839999Y-40168286D01*
X119960571Y-40748857D02*
X118799428Y-40748857D01*
X117420571Y-119234857D02*
X116259428Y-119234857D01*
X116839999Y-119815429D02*
X116839999Y-118654286D01*
X119960571Y-119234857D02*
X118799428Y-119234857D01*
X104502857Y-40894000D02*
X103777143Y-40894000D01*
X104648000Y-41329429D02*
X104140000Y-39805429D01*
X103632000Y-41329429D01*
X106571143Y-40531143D02*
X106353429Y-40603714D01*
X106280857Y-40676286D01*
X106208286Y-40821429D01*
X106208286Y-41039143D01*
X106280857Y-41184286D01*
X106353429Y-41256857D01*
X106498571Y-41329429D01*
X107079143Y-41329429D01*
X107079143Y-39805429D01*
X106571143Y-39805429D01*
X106426000Y-39878000D01*
X106353429Y-39950571D01*
X106280857Y-40095714D01*
X106280857Y-40240857D01*
X106353429Y-40386000D01*
X106426000Y-40458571D01*
X106571143Y-40531143D01*
X107079143Y-40531143D01*
X108748286Y-41184286D02*
X108820857Y-41256857D01*
X109038571Y-41329429D01*
X109183714Y-41329429D01*
X109401429Y-41256857D01*
X109546571Y-41111714D01*
X109619143Y-40966571D01*
X109691714Y-40676286D01*
X109691714Y-40458571D01*
X109619143Y-40168286D01*
X109546571Y-40023143D01*
X109401429Y-39878000D01*
X109183714Y-39805429D01*
X109038571Y-39805429D01*
X108820857Y-39878000D01*
X108748286Y-39950571D01*
X112159143Y-41329429D02*
X112159143Y-39805429D01*
X111796286Y-39805429D01*
X111578571Y-39878000D01*
X111433429Y-40023143D01*
X111360857Y-40168286D01*
X111288286Y-40458571D01*
X111288286Y-40676286D01*
X111360857Y-40966571D01*
X111433429Y-41111714D01*
X111578571Y-41256857D01*
X111796286Y-41329429D01*
X112159143Y-41329429D01*
X114626571Y-40531143D02*
X114118571Y-40531143D01*
X113900857Y-41329429D02*
X114626571Y-41329429D01*
X114626571Y-39805429D01*
X113900857Y-39805429D01*
X121702286Y-40531143D02*
X122210286Y-40531143D01*
X122210286Y-41329429D02*
X122210286Y-39805429D01*
X121484572Y-39805429D01*
X124060857Y-39878000D02*
X124206000Y-39805429D01*
X124423714Y-39805429D01*
X124641429Y-39878000D01*
X124786571Y-40023143D01*
X124859143Y-40168286D01*
X124931714Y-40458571D01*
X124931714Y-40676286D01*
X124859143Y-40966571D01*
X124786571Y-41111714D01*
X124641429Y-41256857D01*
X124423714Y-41329429D01*
X124278571Y-41329429D01*
X124060857Y-41256857D01*
X123988286Y-41184286D01*
X123988286Y-40676286D01*
X124278571Y-40676286D01*
X127435428Y-41329429D02*
X127435428Y-39805429D01*
X127435428Y-40531143D02*
X126564571Y-40531143D01*
X126564571Y-41329429D02*
X126564571Y-39805429D01*
X129540000Y-41329429D02*
X129540000Y-39805429D01*
X131862285Y-39805429D02*
X131862285Y-40894000D01*
X131934857Y-41111714D01*
X132080000Y-41256857D01*
X132297714Y-41329429D01*
X132442857Y-41329429D01*
X140280571Y-40748857D02*
X139119428Y-40748857D01*
X139699999Y-41329429D02*
X139699999Y-40168286D01*
X142820571Y-40748857D02*
X141659428Y-40748857D01*
X97100571Y-40748857D02*
X95939428Y-40748857D01*
X94560571Y-40748857D02*
X93399428Y-40748857D01*
X93979999Y-41329429D02*
X93979999Y-40168286D01*
X94560571Y-119488857D02*
X93399428Y-119488857D01*
X93979999Y-120069429D02*
X93979999Y-118908286D01*
X97100571Y-119488857D02*
X95939428Y-119488857D01*
X142820571Y-119488857D02*
X141659428Y-119488857D01*
X140280571Y-119488857D02*
X139119428Y-119488857D01*
X139699999Y-120069429D02*
X139699999Y-118908286D01*
X131862285Y-118545429D02*
X131862285Y-119634000D01*
X131934857Y-119851714D01*
X132080000Y-119996857D01*
X132297714Y-120069429D01*
X132442857Y-120069429D01*
X129540000Y-120069429D02*
X129540000Y-118545429D01*
X127435428Y-120069429D02*
X127435428Y-118545429D01*
X127435428Y-119271143D02*
X126564571Y-119271143D01*
X126564571Y-120069429D02*
X126564571Y-118545429D01*
X124060857Y-118618000D02*
X124206000Y-118545429D01*
X124423714Y-118545429D01*
X124641429Y-118618000D01*
X124786571Y-118763143D01*
X124859143Y-118908286D01*
X124931714Y-119198571D01*
X124931714Y-119416286D01*
X124859143Y-119706571D01*
X124786571Y-119851714D01*
X124641429Y-119996857D01*
X124423714Y-120069429D01*
X124278571Y-120069429D01*
X124060857Y-119996857D01*
X123988286Y-119924286D01*
X123988286Y-119416286D01*
X124278571Y-119416286D01*
X121702286Y-119271143D02*
X122210286Y-119271143D01*
X122210286Y-120069429D02*
X122210286Y-118545429D01*
X121484572Y-118545429D01*
X114626571Y-119271143D02*
X114118571Y-119271143D01*
X113900857Y-120069429D02*
X114626571Y-120069429D01*
X114626571Y-118545429D01*
X113900857Y-118545429D01*
X112159143Y-120069429D02*
X112159143Y-118545429D01*
X111796286Y-118545429D01*
X111578571Y-118618000D01*
X111433429Y-118763143D01*
X111360857Y-118908286D01*
X111288286Y-119198571D01*
X111288286Y-119416286D01*
X111360857Y-119706571D01*
X111433429Y-119851714D01*
X111578571Y-119996857D01*
X111796286Y-120069429D01*
X112159143Y-120069429D01*
X108748286Y-119924286D02*
X108820857Y-119996857D01*
X109038571Y-120069429D01*
X109183714Y-120069429D01*
X109401429Y-119996857D01*
X109546571Y-119851714D01*
X109619143Y-119706571D01*
X109691714Y-119416286D01*
X109691714Y-119198571D01*
X109619143Y-118908286D01*
X109546571Y-118763143D01*
X109401429Y-118618000D01*
X109183714Y-118545429D01*
X109038571Y-118545429D01*
X108820857Y-118618000D01*
X108748286Y-118690571D01*
X106571143Y-119271143D02*
X106353429Y-119343714D01*
X106280857Y-119416286D01*
X106208286Y-119561429D01*
X106208286Y-119779143D01*
X106280857Y-119924286D01*
X106353429Y-119996857D01*
X106498571Y-120069429D01*
X107079143Y-120069429D01*
X107079143Y-118545429D01*
X106571143Y-118545429D01*
X106426000Y-118618000D01*
X106353429Y-118690571D01*
X106280857Y-118835714D01*
X106280857Y-118980857D01*
X106353429Y-119126000D01*
X106426000Y-119198571D01*
X106571143Y-119271143D01*
X107079143Y-119271143D01*
X104502857Y-119634000D02*
X103777143Y-119634000D01*
X104648000Y-120069429D02*
X104140000Y-118545429D01*
X103632000Y-120069429D01*
X102833715Y-116005429D02*
X101890286Y-116005429D01*
X102398286Y-116586000D01*
X102180572Y-116586000D01*
X102035429Y-116658571D01*
X101962858Y-116731143D01*
X101890286Y-116876286D01*
X101890286Y-117239143D01*
X101962858Y-117384286D01*
X102035429Y-117456857D01*
X102180572Y-117529429D01*
X102616000Y-117529429D01*
X102761143Y-117456857D01*
X102833715Y-117384286D01*
X100946857Y-116005429D02*
X100801714Y-116005429D01*
X100656571Y-116078000D01*
X100584000Y-116150571D01*
X100511429Y-116295714D01*
X100438857Y-116586000D01*
X100438857Y-116948857D01*
X100511429Y-117239143D01*
X100584000Y-117384286D01*
X100656571Y-117456857D01*
X100801714Y-117529429D01*
X100946857Y-117529429D01*
X101092000Y-117456857D01*
X101164571Y-117384286D01*
X101237143Y-117239143D01*
X101309714Y-116948857D01*
X101309714Y-116586000D01*
X101237143Y-116295714D01*
X101164571Y-116150571D01*
X101092000Y-116078000D01*
X100946857Y-116005429D01*
X102761143Y-103450571D02*
X102688572Y-103378000D01*
X102543429Y-103305429D01*
X102180572Y-103305429D01*
X102035429Y-103378000D01*
X101962858Y-103450571D01*
X101890286Y-103595714D01*
X101890286Y-103740857D01*
X101962858Y-103958571D01*
X102833715Y-104829429D01*
X101890286Y-104829429D01*
X100511429Y-103305429D02*
X101237143Y-103305429D01*
X101309714Y-104031143D01*
X101237143Y-103958571D01*
X101092000Y-103886000D01*
X100729143Y-103886000D01*
X100584000Y-103958571D01*
X100511429Y-104031143D01*
X100438857Y-104176286D01*
X100438857Y-104539143D01*
X100511429Y-104684286D01*
X100584000Y-104756857D01*
X100729143Y-104829429D01*
X101092000Y-104829429D01*
X101237143Y-104756857D01*
X101309714Y-104684286D01*
X134184571Y-43869429D02*
X135055428Y-43869429D01*
X134620000Y-43869429D02*
X134620000Y-42345429D01*
X134765143Y-42563143D01*
X134910285Y-42708286D01*
X135055428Y-42780857D01*
X134257143Y-52505429D02*
X134982857Y-52505429D01*
X135055428Y-53231143D01*
X134982857Y-53158571D01*
X134837714Y-53086000D01*
X134474857Y-53086000D01*
X134329714Y-53158571D01*
X134257143Y-53231143D01*
X134184571Y-53376286D01*
X134184571Y-53739143D01*
X134257143Y-53884286D01*
X134329714Y-53956857D01*
X134474857Y-54029429D01*
X134837714Y-54029429D01*
X134982857Y-53956857D01*
X135055428Y-53884286D01*
X134910286Y-66729429D02*
X135781143Y-66729429D01*
X135345715Y-66729429D02*
X135345715Y-65205429D01*
X135490858Y-65423143D01*
X135636000Y-65568286D01*
X135781143Y-65640857D01*
X133966857Y-65205429D02*
X133821714Y-65205429D01*
X133676571Y-65278000D01*
X133604000Y-65350571D01*
X133531429Y-65495714D01*
X133458857Y-65786000D01*
X133458857Y-66148857D01*
X133531429Y-66439143D01*
X133604000Y-66584286D01*
X133676571Y-66656857D01*
X133821714Y-66729429D01*
X133966857Y-66729429D01*
X134112000Y-66656857D01*
X134184571Y-66584286D01*
X134257143Y-66439143D01*
X134329714Y-66148857D01*
X134329714Y-65786000D01*
X134257143Y-65495714D01*
X134184571Y-65350571D01*
X134112000Y-65278000D01*
X133966857Y-65205429D01*
X134910286Y-79429429D02*
X135781143Y-79429429D01*
X135345715Y-79429429D02*
X135345715Y-77905429D01*
X135490858Y-78123143D01*
X135636000Y-78268286D01*
X135781143Y-78340857D01*
X133531429Y-77905429D02*
X134257143Y-77905429D01*
X134329714Y-78631143D01*
X134257143Y-78558571D01*
X134112000Y-78486000D01*
X133749143Y-78486000D01*
X133604000Y-78558571D01*
X133531429Y-78631143D01*
X133458857Y-78776286D01*
X133458857Y-79139143D01*
X133531429Y-79284286D01*
X133604000Y-79356857D01*
X133749143Y-79429429D01*
X134112000Y-79429429D01*
X134257143Y-79356857D01*
X134329714Y-79284286D01*
X135781143Y-90750571D02*
X135708572Y-90678000D01*
X135563429Y-90605429D01*
X135200572Y-90605429D01*
X135055429Y-90678000D01*
X134982858Y-90750571D01*
X134910286Y-90895714D01*
X134910286Y-91040857D01*
X134982858Y-91258571D01*
X135853715Y-92129429D01*
X134910286Y-92129429D01*
X133966857Y-90605429D02*
X133821714Y-90605429D01*
X133676571Y-90678000D01*
X133604000Y-90750571D01*
X133531429Y-90895714D01*
X133458857Y-91186000D01*
X133458857Y-91548857D01*
X133531429Y-91839143D01*
X133604000Y-91984286D01*
X133676571Y-92056857D01*
X133821714Y-92129429D01*
X133966857Y-92129429D01*
X134112000Y-92056857D01*
X134184571Y-91984286D01*
X134257143Y-91839143D01*
X134329714Y-91548857D01*
X134329714Y-91186000D01*
X134257143Y-90895714D01*
X134184571Y-90750571D01*
X134112000Y-90678000D01*
X133966857Y-90605429D01*
X135781143Y-103450571D02*
X135708572Y-103378000D01*
X135563429Y-103305429D01*
X135200572Y-103305429D01*
X135055429Y-103378000D01*
X134982858Y-103450571D01*
X134910286Y-103595714D01*
X134910286Y-103740857D01*
X134982858Y-103958571D01*
X135853715Y-104829429D01*
X134910286Y-104829429D01*
X133531429Y-103305429D02*
X134257143Y-103305429D01*
X134329714Y-104031143D01*
X134257143Y-103958571D01*
X134112000Y-103886000D01*
X133749143Y-103886000D01*
X133604000Y-103958571D01*
X133531429Y-104031143D01*
X133458857Y-104176286D01*
X133458857Y-104539143D01*
X133531429Y-104684286D01*
X133604000Y-104756857D01*
X133749143Y-104829429D01*
X134112000Y-104829429D01*
X134257143Y-104756857D01*
X134329714Y-104684286D01*
X135853715Y-116005429D02*
X134910286Y-116005429D01*
X135418286Y-116586000D01*
X135200572Y-116586000D01*
X135055429Y-116658571D01*
X134982858Y-116731143D01*
X134910286Y-116876286D01*
X134910286Y-117239143D01*
X134982858Y-117384286D01*
X135055429Y-117456857D01*
X135200572Y-117529429D01*
X135636000Y-117529429D01*
X135781143Y-117456857D01*
X135853715Y-117384286D01*
X133966857Y-116005429D02*
X133821714Y-116005429D01*
X133676571Y-116078000D01*
X133604000Y-116150571D01*
X133531429Y-116295714D01*
X133458857Y-116586000D01*
X133458857Y-116948857D01*
X133531429Y-117239143D01*
X133604000Y-117384286D01*
X133676571Y-117456857D01*
X133821714Y-117529429D01*
X133966857Y-117529429D01*
X134112000Y-117456857D01*
X134184571Y-117384286D01*
X134257143Y-117239143D01*
X134329714Y-116948857D01*
X134329714Y-116586000D01*
X134257143Y-116295714D01*
X134184571Y-116150571D01*
X134112000Y-116078000D01*
X133966857Y-116005429D01*
X102761143Y-90750571D02*
X102688572Y-90678000D01*
X102543429Y-90605429D01*
X102180572Y-90605429D01*
X102035429Y-90678000D01*
X101962858Y-90750571D01*
X101890286Y-90895714D01*
X101890286Y-91040857D01*
X101962858Y-91258571D01*
X102833715Y-92129429D01*
X101890286Y-92129429D01*
X100946857Y-90605429D02*
X100801714Y-90605429D01*
X100656571Y-90678000D01*
X100584000Y-90750571D01*
X100511429Y-90895714D01*
X100438857Y-91186000D01*
X100438857Y-91548857D01*
X100511429Y-91839143D01*
X100584000Y-91984286D01*
X100656571Y-92056857D01*
X100801714Y-92129429D01*
X100946857Y-92129429D01*
X101092000Y-92056857D01*
X101164571Y-91984286D01*
X101237143Y-91839143D01*
X101309714Y-91548857D01*
X101309714Y-91186000D01*
X101237143Y-90895714D01*
X101164571Y-90750571D01*
X101092000Y-90678000D01*
X100946857Y-90605429D01*
X101890286Y-79429429D02*
X102761143Y-79429429D01*
X102325715Y-79429429D02*
X102325715Y-77905429D01*
X102470858Y-78123143D01*
X102616000Y-78268286D01*
X102761143Y-78340857D01*
X100511429Y-77905429D02*
X101237143Y-77905429D01*
X101309714Y-78631143D01*
X101237143Y-78558571D01*
X101092000Y-78486000D01*
X100729143Y-78486000D01*
X100584000Y-78558571D01*
X100511429Y-78631143D01*
X100438857Y-78776286D01*
X100438857Y-79139143D01*
X100511429Y-79284286D01*
X100584000Y-79356857D01*
X100729143Y-79429429D01*
X101092000Y-79429429D01*
X101237143Y-79356857D01*
X101309714Y-79284286D01*
X101890286Y-66729429D02*
X102761143Y-66729429D01*
X102325715Y-66729429D02*
X102325715Y-65205429D01*
X102470858Y-65423143D01*
X102616000Y-65568286D01*
X102761143Y-65640857D01*
X100946857Y-65205429D02*
X100801714Y-65205429D01*
X100656571Y-65278000D01*
X100584000Y-65350571D01*
X100511429Y-65495714D01*
X100438857Y-65786000D01*
X100438857Y-66148857D01*
X100511429Y-66439143D01*
X100584000Y-66584286D01*
X100656571Y-66656857D01*
X100801714Y-66729429D01*
X100946857Y-66729429D01*
X101092000Y-66656857D01*
X101164571Y-66584286D01*
X101237143Y-66439143D01*
X101309714Y-66148857D01*
X101309714Y-65786000D01*
X101237143Y-65495714D01*
X101164571Y-65350571D01*
X101092000Y-65278000D01*
X100946857Y-65205429D01*
X101237143Y-52505429D02*
X101962857Y-52505429D01*
X102035428Y-53231143D01*
X101962857Y-53158571D01*
X101817714Y-53086000D01*
X101454857Y-53086000D01*
X101309714Y-53158571D01*
X101237143Y-53231143D01*
X101164571Y-53376286D01*
X101164571Y-53739143D01*
X101237143Y-53884286D01*
X101309714Y-53956857D01*
X101454857Y-54029429D01*
X101817714Y-54029429D01*
X101962857Y-53956857D01*
X102035428Y-53884286D01*
X101164571Y-43869429D02*
X102035428Y-43869429D01*
X101600000Y-43869429D02*
X101600000Y-42345429D01*
X101745143Y-42563143D01*
X101890285Y-42708286D01*
X102035428Y-42780857D01*
D12*
X137227429Y-67772857D02*
X135727429Y-67772857D01*
X137156000Y-67772857D02*
X137227429Y-67630000D01*
X137227429Y-67344286D01*
X137156000Y-67201429D01*
X137084571Y-67130000D01*
X136941714Y-67058571D01*
X136513143Y-67058571D01*
X136370286Y-67130000D01*
X136298857Y-67201429D01*
X136227429Y-67344286D01*
X136227429Y-67630000D01*
X136298857Y-67772857D01*
X136227429Y-66415714D02*
X137227429Y-66415714D01*
X136941714Y-66415714D02*
X137084571Y-66344286D01*
X137156000Y-66272857D01*
X137227429Y-66130000D01*
X137227429Y-65987143D01*
X136227429Y-65272857D02*
X136298857Y-65415715D01*
X136370286Y-65487143D01*
X136513143Y-65558572D01*
X136941714Y-65558572D01*
X137084571Y-65487143D01*
X137156000Y-65415715D01*
X137227429Y-65272857D01*
X137227429Y-65058572D01*
X137156000Y-64915715D01*
X137084571Y-64844286D01*
X136941714Y-64772857D01*
X136513143Y-64772857D01*
X136370286Y-64844286D01*
X136298857Y-64915715D01*
X136227429Y-65058572D01*
X136227429Y-65272857D01*
X137227429Y-64130000D02*
X136227429Y-64130000D01*
X137084571Y-64130000D02*
X137156000Y-64058572D01*
X137227429Y-63915714D01*
X137227429Y-63701429D01*
X137156000Y-63558572D01*
X137013143Y-63487143D01*
X136227429Y-63487143D01*
X137227429Y-62987143D02*
X137227429Y-62415714D01*
X137727429Y-62772857D02*
X136441714Y-62772857D01*
X136298857Y-62701429D01*
X136227429Y-62558571D01*
X136227429Y-62415714D01*
X136227429Y-61701428D02*
X136298857Y-61844286D01*
X136370286Y-61915714D01*
X136513143Y-61987143D01*
X136941714Y-61987143D01*
X137084571Y-61915714D01*
X137156000Y-61844286D01*
X137227429Y-61701428D01*
X137227429Y-61487143D01*
X137156000Y-61344286D01*
X137084571Y-61272857D01*
X136941714Y-61201428D01*
X136513143Y-61201428D01*
X136370286Y-61272857D01*
X136298857Y-61344286D01*
X136227429Y-61487143D01*
X136227429Y-61701428D01*
X136370286Y-59415714D02*
X136298857Y-59344286D01*
X136227429Y-59415714D01*
X136298857Y-59487143D01*
X136370286Y-59415714D01*
X136227429Y-59415714D01*
X137156000Y-59415714D02*
X137084571Y-59344286D01*
X137013143Y-59415714D01*
X137084571Y-59487143D01*
X137156000Y-59415714D01*
X137013143Y-59415714D01*
X136370286Y-58701428D02*
X136298857Y-58630000D01*
X136227429Y-58701428D01*
X136298857Y-58772857D01*
X136370286Y-58701428D01*
X136227429Y-58701428D01*
X137156000Y-58701428D02*
X137084571Y-58630000D01*
X137013143Y-58701428D01*
X137084571Y-58772857D01*
X137156000Y-58701428D01*
X137013143Y-58701428D01*
X137227429Y-56987142D02*
X136227429Y-56701428D01*
X136941714Y-56415714D01*
X136227429Y-56129999D01*
X137227429Y-55844285D01*
X137227429Y-55415713D02*
X136227429Y-55058570D01*
X137227429Y-54701428D02*
X136227429Y-55058570D01*
X135870286Y-55201428D01*
X135798857Y-55272856D01*
X135727429Y-55415713D01*
X136227429Y-53915713D02*
X136298857Y-54058571D01*
X136370286Y-54129999D01*
X136513143Y-54201428D01*
X136941714Y-54201428D01*
X137084571Y-54129999D01*
X137156000Y-54058571D01*
X137227429Y-53915713D01*
X137227429Y-53701428D01*
X137156000Y-53558571D01*
X137084571Y-53487142D01*
X136941714Y-53415713D01*
X136513143Y-53415713D01*
X136370286Y-53487142D01*
X136298857Y-53558571D01*
X136227429Y-53701428D01*
X136227429Y-53915713D01*
X136227429Y-52558570D02*
X136298857Y-52701428D01*
X136441714Y-52772856D01*
X137727429Y-52772856D01*
X137227429Y-51344285D02*
X136227429Y-51344285D01*
X137227429Y-51987142D02*
X136441714Y-51987142D01*
X136298857Y-51915714D01*
X136227429Y-51772856D01*
X136227429Y-51558571D01*
X136298857Y-51415714D01*
X136370286Y-51344285D01*
X136227429Y-50629999D02*
X137227429Y-50629999D01*
X137084571Y-50629999D02*
X137156000Y-50558571D01*
X137227429Y-50415713D01*
X137227429Y-50201428D01*
X137156000Y-50058571D01*
X137013143Y-49987142D01*
X136227429Y-49987142D01*
X137013143Y-49987142D02*
X137156000Y-49915713D01*
X137227429Y-49772856D01*
X137227429Y-49558571D01*
X137156000Y-49415713D01*
X137013143Y-49344285D01*
X136227429Y-49344285D01*
X136370286Y-48629999D02*
X136298857Y-48558571D01*
X136227429Y-48629999D01*
X136298857Y-48701428D01*
X136370286Y-48629999D01*
X136227429Y-48629999D01*
X136298857Y-47272856D02*
X136227429Y-47415713D01*
X136227429Y-47701427D01*
X136298857Y-47844285D01*
X136370286Y-47915713D01*
X136513143Y-47987142D01*
X136941714Y-47987142D01*
X137084571Y-47915713D01*
X137156000Y-47844285D01*
X137227429Y-47701427D01*
X137227429Y-47415713D01*
X137156000Y-47272856D01*
X136227429Y-46415713D02*
X136298857Y-46558571D01*
X136370286Y-46629999D01*
X136513143Y-46701428D01*
X136941714Y-46701428D01*
X137084571Y-46629999D01*
X137156000Y-46558571D01*
X137227429Y-46415713D01*
X137227429Y-46201428D01*
X137156000Y-46058571D01*
X137084571Y-45987142D01*
X136941714Y-45915713D01*
X136513143Y-45915713D01*
X136370286Y-45987142D01*
X136298857Y-46058571D01*
X136227429Y-46201428D01*
X136227429Y-46415713D01*
X136227429Y-45272856D02*
X137227429Y-45272856D01*
X137084571Y-45272856D02*
X137156000Y-45201428D01*
X137227429Y-45058570D01*
X137227429Y-44844285D01*
X137156000Y-44701428D01*
X137013143Y-44629999D01*
X136227429Y-44629999D01*
X137013143Y-44629999D02*
X137156000Y-44558570D01*
X137227429Y-44415713D01*
X137227429Y-44201428D01*
X137156000Y-44058570D01*
X137013143Y-43987142D01*
X136227429Y-43987142D01*
X98738571Y-89707143D02*
X100238571Y-89707143D01*
X98810000Y-89707143D02*
X98738571Y-89850000D01*
X98738571Y-90135714D01*
X98810000Y-90278571D01*
X98881429Y-90350000D01*
X99024286Y-90421429D01*
X99452857Y-90421429D01*
X99595714Y-90350000D01*
X99667143Y-90278571D01*
X99738571Y-90135714D01*
X99738571Y-89850000D01*
X99667143Y-89707143D01*
X99738571Y-91064286D02*
X98738571Y-91064286D01*
X99024286Y-91064286D02*
X98881429Y-91135714D01*
X98810000Y-91207143D01*
X98738571Y-91350000D01*
X98738571Y-91492857D01*
X99738571Y-92207143D02*
X99667143Y-92064285D01*
X99595714Y-91992857D01*
X99452857Y-91921428D01*
X99024286Y-91921428D01*
X98881429Y-91992857D01*
X98810000Y-92064285D01*
X98738571Y-92207143D01*
X98738571Y-92421428D01*
X98810000Y-92564285D01*
X98881429Y-92635714D01*
X99024286Y-92707143D01*
X99452857Y-92707143D01*
X99595714Y-92635714D01*
X99667143Y-92564285D01*
X99738571Y-92421428D01*
X99738571Y-92207143D01*
X98738571Y-93350000D02*
X99738571Y-93350000D01*
X98881429Y-93350000D02*
X98810000Y-93421428D01*
X98738571Y-93564286D01*
X98738571Y-93778571D01*
X98810000Y-93921428D01*
X98952857Y-93992857D01*
X99738571Y-93992857D01*
X98738571Y-94492857D02*
X98738571Y-95064286D01*
X98238571Y-94707143D02*
X99524286Y-94707143D01*
X99667143Y-94778571D01*
X99738571Y-94921429D01*
X99738571Y-95064286D01*
X99738571Y-95778572D02*
X99667143Y-95635714D01*
X99595714Y-95564286D01*
X99452857Y-95492857D01*
X99024286Y-95492857D01*
X98881429Y-95564286D01*
X98810000Y-95635714D01*
X98738571Y-95778572D01*
X98738571Y-95992857D01*
X98810000Y-96135714D01*
X98881429Y-96207143D01*
X99024286Y-96278572D01*
X99452857Y-96278572D01*
X99595714Y-96207143D01*
X99667143Y-96135714D01*
X99738571Y-95992857D01*
X99738571Y-95778572D01*
X99595714Y-98064286D02*
X99667143Y-98135714D01*
X99738571Y-98064286D01*
X99667143Y-97992857D01*
X99595714Y-98064286D01*
X99738571Y-98064286D01*
X98810000Y-98064286D02*
X98881429Y-98135714D01*
X98952857Y-98064286D01*
X98881429Y-97992857D01*
X98810000Y-98064286D01*
X98952857Y-98064286D01*
X99595714Y-98778572D02*
X99667143Y-98850000D01*
X99738571Y-98778572D01*
X99667143Y-98707143D01*
X99595714Y-98778572D01*
X99738571Y-98778572D01*
X98810000Y-98778572D02*
X98881429Y-98850000D01*
X98952857Y-98778572D01*
X98881429Y-98707143D01*
X98810000Y-98778572D01*
X98952857Y-98778572D01*
X98738571Y-100492858D02*
X99738571Y-100778572D01*
X99024286Y-101064286D01*
X99738571Y-101350001D01*
X98738571Y-101635715D01*
X98738571Y-102064287D02*
X99738571Y-102421430D01*
X98738571Y-102778572D02*
X99738571Y-102421430D01*
X100095714Y-102278572D01*
X100167143Y-102207144D01*
X100238571Y-102064287D01*
X99738571Y-103564287D02*
X99667143Y-103421429D01*
X99595714Y-103350001D01*
X99452857Y-103278572D01*
X99024286Y-103278572D01*
X98881429Y-103350001D01*
X98810000Y-103421429D01*
X98738571Y-103564287D01*
X98738571Y-103778572D01*
X98810000Y-103921429D01*
X98881429Y-103992858D01*
X99024286Y-104064287D01*
X99452857Y-104064287D01*
X99595714Y-103992858D01*
X99667143Y-103921429D01*
X99738571Y-103778572D01*
X99738571Y-103564287D01*
X99738571Y-104921430D02*
X99667143Y-104778572D01*
X99524286Y-104707144D01*
X98238571Y-104707144D01*
X98738571Y-106135715D02*
X99738571Y-106135715D01*
X98738571Y-105492858D02*
X99524286Y-105492858D01*
X99667143Y-105564286D01*
X99738571Y-105707144D01*
X99738571Y-105921429D01*
X99667143Y-106064286D01*
X99595714Y-106135715D01*
X99738571Y-106850001D02*
X98738571Y-106850001D01*
X98881429Y-106850001D02*
X98810000Y-106921429D01*
X98738571Y-107064287D01*
X98738571Y-107278572D01*
X98810000Y-107421429D01*
X98952857Y-107492858D01*
X99738571Y-107492858D01*
X98952857Y-107492858D02*
X98810000Y-107564287D01*
X98738571Y-107707144D01*
X98738571Y-107921429D01*
X98810000Y-108064287D01*
X98952857Y-108135715D01*
X99738571Y-108135715D01*
X99595714Y-108850001D02*
X99667143Y-108921429D01*
X99738571Y-108850001D01*
X99667143Y-108778572D01*
X99595714Y-108850001D01*
X99738571Y-108850001D01*
X99667143Y-110207144D02*
X99738571Y-110064287D01*
X99738571Y-109778573D01*
X99667143Y-109635715D01*
X99595714Y-109564287D01*
X99452857Y-109492858D01*
X99024286Y-109492858D01*
X98881429Y-109564287D01*
X98810000Y-109635715D01*
X98738571Y-109778573D01*
X98738571Y-110064287D01*
X98810000Y-110207144D01*
X99738571Y-111064287D02*
X99667143Y-110921429D01*
X99595714Y-110850001D01*
X99452857Y-110778572D01*
X99024286Y-110778572D01*
X98881429Y-110850001D01*
X98810000Y-110921429D01*
X98738571Y-111064287D01*
X98738571Y-111278572D01*
X98810000Y-111421429D01*
X98881429Y-111492858D01*
X99024286Y-111564287D01*
X99452857Y-111564287D01*
X99595714Y-111492858D01*
X99667143Y-111421429D01*
X99738571Y-111278572D01*
X99738571Y-111064287D01*
X99738571Y-112207144D02*
X98738571Y-112207144D01*
X98881429Y-112207144D02*
X98810000Y-112278572D01*
X98738571Y-112421430D01*
X98738571Y-112635715D01*
X98810000Y-112778572D01*
X98952857Y-112850001D01*
X99738571Y-112850001D01*
X98952857Y-112850001D02*
X98810000Y-112921430D01*
X98738571Y-113064287D01*
X98738571Y-113278572D01*
X98810000Y-113421430D01*
X98952857Y-113492858D01*
X99738571Y-113492858D01*
D10*
X91440000Y-118110000D02*
G75*
G03X93980000Y-120650000I2540000J0D01*
G01*
X142240000Y-120650000D02*
G75*
G03X144780000Y-118110000I0J2540000D01*
G01*
X144780000Y-41910000D02*
G75*
G03X142240000Y-39370000I-2540000J0D01*
G01*
X93980000Y-39370000D02*
G75*
G03X91440000Y-41910000I0J-2540000D01*
G01*
X91440000Y-118110000D02*
X91440000Y-41910000D01*
X142240000Y-120650000D02*
X93980000Y-120650000D01*
X144780000Y-41910000D02*
X144780000Y-118110000D01*
X93980000Y-39370000D02*
X142240000Y-39370000D01*
%LPC*%
D13*
X96520000Y-116840000D03*
X93980000Y-116840000D03*
X142240000Y-116840000D03*
X139700000Y-116840000D03*
X142240000Y-101600000D03*
X139700000Y-101600000D03*
X142240000Y-86360000D03*
X139700000Y-86360000D03*
X142240000Y-71120000D03*
X139700000Y-71120000D03*
X142240000Y-55880000D03*
X139700000Y-55880000D03*
X96520000Y-101600000D03*
X93980000Y-101600000D03*
X96520000Y-86360000D03*
X93980000Y-86360000D03*
X96520000Y-71120000D03*
X93980000Y-71120000D03*
X96520000Y-55880000D03*
X93980000Y-55880000D03*
X119380000Y-116840000D03*
X116840000Y-116840000D03*
X119380000Y-101600000D03*
X116840000Y-101600000D03*
X119380000Y-86360000D03*
X116840000Y-86360000D03*
X119380000Y-71120000D03*
X116840000Y-71120000D03*
X119380000Y-55880000D03*
X116840000Y-55880000D03*
X116840000Y-73660000D03*
X119380000Y-73660000D03*
X116840000Y-66040000D03*
X119380000Y-66040000D03*
X119380000Y-68580000D03*
X116840000Y-68580000D03*
X116840000Y-58420000D03*
X119380000Y-58420000D03*
X116840000Y-60960000D03*
X119380000Y-60960000D03*
X119380000Y-63500000D03*
X116840000Y-63500000D03*
X116840000Y-43180000D03*
X119380000Y-43180000D03*
X116840000Y-48260000D03*
X119380000Y-48260000D03*
X119380000Y-45720000D03*
X116840000Y-45720000D03*
X116840000Y-50800000D03*
X119380000Y-50800000D03*
X119380000Y-53340000D03*
X116840000Y-53340000D03*
X116840000Y-93980000D03*
X119380000Y-93980000D03*
X119380000Y-91440000D03*
X116840000Y-91440000D03*
X119380000Y-88900000D03*
X116840000Y-88900000D03*
X116840000Y-78740000D03*
X119380000Y-78740000D03*
X119380000Y-76200000D03*
X116840000Y-76200000D03*
X116840000Y-81280000D03*
X119380000Y-81280000D03*
X119380000Y-83820000D03*
X116840000Y-83820000D03*
X116840000Y-104140000D03*
X119380000Y-104140000D03*
X116840000Y-96520000D03*
X119380000Y-96520000D03*
X119380000Y-99060000D03*
X116840000Y-99060000D03*
X116840000Y-109220000D03*
X119380000Y-109220000D03*
X119380000Y-106680000D03*
X116840000Y-106680000D03*
X116840000Y-111760000D03*
X119380000Y-111760000D03*
X119380000Y-114300000D03*
X116840000Y-114300000D03*
X121920000Y-111760000D03*
X124460000Y-111760000D03*
X127000000Y-111760000D03*
X132080000Y-111760000D03*
X129540000Y-111760000D03*
X121920000Y-114300000D03*
X124460000Y-114300000D03*
X127000000Y-114300000D03*
X132080000Y-114300000D03*
X129540000Y-114300000D03*
X129540000Y-116840000D03*
X132080000Y-116840000D03*
X127000000Y-116840000D03*
X124460000Y-116840000D03*
X121920000Y-116840000D03*
X129540000Y-99060000D03*
X132080000Y-99060000D03*
X127000000Y-99060000D03*
X124460000Y-99060000D03*
X121920000Y-99060000D03*
X121920000Y-109220000D03*
X124460000Y-109220000D03*
X127000000Y-109220000D03*
X132080000Y-109220000D03*
X129540000Y-109220000D03*
X129540000Y-106680000D03*
X132080000Y-106680000D03*
X127000000Y-106680000D03*
X124460000Y-106680000D03*
X121920000Y-106680000D03*
X121920000Y-101600000D03*
X124460000Y-101600000D03*
X127000000Y-101600000D03*
X132080000Y-101600000D03*
X129540000Y-101600000D03*
X129540000Y-104140000D03*
X132080000Y-104140000D03*
X127000000Y-104140000D03*
X124460000Y-104140000D03*
X121920000Y-104140000D03*
X121920000Y-91440000D03*
X124460000Y-91440000D03*
X127000000Y-91440000D03*
X132080000Y-91440000D03*
X129540000Y-91440000D03*
X129540000Y-88900000D03*
X132080000Y-88900000D03*
X127000000Y-88900000D03*
X124460000Y-88900000D03*
X121920000Y-88900000D03*
X121920000Y-93980000D03*
X124460000Y-93980000D03*
X127000000Y-93980000D03*
X132080000Y-93980000D03*
X129540000Y-93980000D03*
X129540000Y-96520000D03*
X132080000Y-96520000D03*
X127000000Y-96520000D03*
X124460000Y-96520000D03*
X121920000Y-96520000D03*
X121920000Y-86360000D03*
X124460000Y-86360000D03*
X127000000Y-86360000D03*
X132080000Y-86360000D03*
X129540000Y-86360000D03*
X129540000Y-83820000D03*
X132080000Y-83820000D03*
X127000000Y-83820000D03*
X124460000Y-83820000D03*
X121920000Y-83820000D03*
X121920000Y-66040000D03*
X124460000Y-66040000D03*
X127000000Y-66040000D03*
X132080000Y-66040000D03*
X129540000Y-66040000D03*
X129540000Y-63500000D03*
X132080000Y-63500000D03*
X127000000Y-63500000D03*
X124460000Y-63500000D03*
X121920000Y-63500000D03*
X121920000Y-68580000D03*
X124460000Y-68580000D03*
X127000000Y-68580000D03*
X132080000Y-68580000D03*
X129540000Y-68580000D03*
X129540000Y-71120000D03*
X132080000Y-71120000D03*
X127000000Y-71120000D03*
X124460000Y-71120000D03*
X121920000Y-71120000D03*
X121920000Y-81280000D03*
X124460000Y-81280000D03*
X127000000Y-81280000D03*
X132080000Y-81280000D03*
X129540000Y-81280000D03*
X129540000Y-78740000D03*
X132080000Y-78740000D03*
X127000000Y-78740000D03*
X124460000Y-78740000D03*
X121920000Y-78740000D03*
X121920000Y-73660000D03*
X124460000Y-73660000D03*
X127000000Y-73660000D03*
X132080000Y-73660000D03*
X129540000Y-73660000D03*
X129540000Y-76200000D03*
X132080000Y-76200000D03*
X127000000Y-76200000D03*
X124460000Y-76200000D03*
X121920000Y-76200000D03*
X121920000Y-55880000D03*
X124460000Y-55880000D03*
X127000000Y-55880000D03*
X132080000Y-55880000D03*
X129540000Y-55880000D03*
X129540000Y-53340000D03*
X132080000Y-53340000D03*
X127000000Y-53340000D03*
X124460000Y-53340000D03*
X121920000Y-53340000D03*
X121920000Y-58420000D03*
X124460000Y-58420000D03*
X127000000Y-58420000D03*
X132080000Y-58420000D03*
X129540000Y-58420000D03*
X129540000Y-60960000D03*
X132080000Y-60960000D03*
X127000000Y-60960000D03*
X124460000Y-60960000D03*
X121920000Y-60960000D03*
X121920000Y-50800000D03*
X124460000Y-50800000D03*
X127000000Y-50800000D03*
X132080000Y-50800000D03*
X129540000Y-50800000D03*
X129540000Y-48260000D03*
X132080000Y-48260000D03*
X127000000Y-48260000D03*
X124460000Y-48260000D03*
X121920000Y-48260000D03*
X121920000Y-43180000D03*
X124460000Y-43180000D03*
X127000000Y-43180000D03*
X132080000Y-43180000D03*
X129540000Y-43180000D03*
X129540000Y-45720000D03*
X132080000Y-45720000D03*
X127000000Y-45720000D03*
X124460000Y-45720000D03*
X121920000Y-45720000D03*
X114300000Y-83820000D03*
X111760000Y-83820000D03*
X109220000Y-83820000D03*
X104140000Y-83820000D03*
X106680000Y-83820000D03*
X106680000Y-86360000D03*
X104140000Y-86360000D03*
X109220000Y-86360000D03*
X111760000Y-86360000D03*
X114300000Y-86360000D03*
X114300000Y-91440000D03*
X111760000Y-91440000D03*
X109220000Y-91440000D03*
X104140000Y-91440000D03*
X106680000Y-91440000D03*
X106680000Y-88900000D03*
X104140000Y-88900000D03*
X109220000Y-88900000D03*
X111760000Y-88900000D03*
X114300000Y-88900000D03*
X114300000Y-99060000D03*
X111760000Y-99060000D03*
X109220000Y-99060000D03*
X104140000Y-99060000D03*
X106680000Y-99060000D03*
X106680000Y-101600000D03*
X104140000Y-101600000D03*
X109220000Y-101600000D03*
X111760000Y-101600000D03*
X114300000Y-101600000D03*
X114300000Y-96520000D03*
X111760000Y-96520000D03*
X109220000Y-96520000D03*
X104140000Y-96520000D03*
X106680000Y-96520000D03*
X106680000Y-93980000D03*
X104140000Y-93980000D03*
X109220000Y-93980000D03*
X111760000Y-93980000D03*
X114300000Y-93980000D03*
X114300000Y-114300000D03*
X111760000Y-114300000D03*
X109220000Y-114300000D03*
X104140000Y-114300000D03*
X106680000Y-114300000D03*
X106680000Y-116840000D03*
X104140000Y-116840000D03*
X109220000Y-116840000D03*
X111760000Y-116840000D03*
X114300000Y-116840000D03*
X114300000Y-109220000D03*
X111760000Y-109220000D03*
X109220000Y-109220000D03*
X104140000Y-109220000D03*
X106680000Y-109220000D03*
X106680000Y-111760000D03*
X104140000Y-111760000D03*
X109220000Y-111760000D03*
X111760000Y-111760000D03*
X114300000Y-111760000D03*
X114300000Y-106680000D03*
X111760000Y-106680000D03*
X109220000Y-106680000D03*
X104140000Y-106680000D03*
X106680000Y-106680000D03*
X106680000Y-104140000D03*
X104140000Y-104140000D03*
X109220000Y-104140000D03*
X111760000Y-104140000D03*
X114300000Y-104140000D03*
X114300000Y-63500000D03*
X111760000Y-63500000D03*
X109220000Y-63500000D03*
X104140000Y-63500000D03*
X106680000Y-63500000D03*
X106680000Y-66040000D03*
X104140000Y-66040000D03*
X109220000Y-66040000D03*
X111760000Y-66040000D03*
X114300000Y-66040000D03*
X114300000Y-71120000D03*
X111760000Y-71120000D03*
X109220000Y-71120000D03*
X104140000Y-71120000D03*
X106680000Y-71120000D03*
X106680000Y-68580000D03*
X104140000Y-68580000D03*
X109220000Y-68580000D03*
X111760000Y-68580000D03*
X114300000Y-68580000D03*
X114300000Y-78740000D03*
X111760000Y-78740000D03*
X109220000Y-78740000D03*
X104140000Y-78740000D03*
X106680000Y-78740000D03*
X106680000Y-81280000D03*
X104140000Y-81280000D03*
X109220000Y-81280000D03*
X111760000Y-81280000D03*
X114300000Y-81280000D03*
X114300000Y-76200000D03*
X111760000Y-76200000D03*
X109220000Y-76200000D03*
X104140000Y-76200000D03*
X106680000Y-76200000D03*
X106680000Y-73660000D03*
X104140000Y-73660000D03*
X109220000Y-73660000D03*
X111760000Y-73660000D03*
X114300000Y-73660000D03*
X114300000Y-53340000D03*
X111760000Y-53340000D03*
X109220000Y-53340000D03*
X104140000Y-53340000D03*
X106680000Y-53340000D03*
X106680000Y-55880000D03*
X104140000Y-55880000D03*
X109220000Y-55880000D03*
X111760000Y-55880000D03*
X114300000Y-55880000D03*
X114300000Y-60960000D03*
X111760000Y-60960000D03*
X109220000Y-60960000D03*
X104140000Y-60960000D03*
X106680000Y-60960000D03*
X106680000Y-58420000D03*
X104140000Y-58420000D03*
X109220000Y-58420000D03*
X111760000Y-58420000D03*
X114300000Y-58420000D03*
X114300000Y-48260000D03*
X111760000Y-48260000D03*
X109220000Y-48260000D03*
X104140000Y-48260000D03*
X106680000Y-48260000D03*
X106680000Y-50800000D03*
X104140000Y-50800000D03*
X109220000Y-50800000D03*
X111760000Y-50800000D03*
X114300000Y-50800000D03*
X114300000Y-45720000D03*
X111760000Y-45720000D03*
X109220000Y-45720000D03*
X104140000Y-45720000D03*
X106680000Y-45720000D03*
X106680000Y-43180000D03*
X104140000Y-43180000D03*
X109220000Y-43180000D03*
X111760000Y-43180000D03*
X114300000Y-43180000D03*
X93980000Y-114300000D03*
X96520000Y-114300000D03*
X96520000Y-111760000D03*
X93980000Y-111760000D03*
X93980000Y-106680000D03*
X96520000Y-106680000D03*
X96520000Y-109220000D03*
X93980000Y-109220000D03*
X93980000Y-99060000D03*
X96520000Y-99060000D03*
X96520000Y-96520000D03*
X93980000Y-96520000D03*
X96520000Y-104140000D03*
X93980000Y-104140000D03*
X93980000Y-83820000D03*
X96520000Y-83820000D03*
X96520000Y-81280000D03*
X93980000Y-81280000D03*
X93980000Y-76200000D03*
X96520000Y-76200000D03*
X96520000Y-78740000D03*
X93980000Y-78740000D03*
X93980000Y-88900000D03*
X96520000Y-88900000D03*
X93980000Y-91440000D03*
X96520000Y-91440000D03*
X96520000Y-93980000D03*
X93980000Y-93980000D03*
X93980000Y-53340000D03*
X96520000Y-53340000D03*
X96520000Y-50800000D03*
X93980000Y-50800000D03*
X93980000Y-45720000D03*
X96520000Y-45720000D03*
X96520000Y-48260000D03*
X93980000Y-48260000D03*
X96520000Y-43180000D03*
X93980000Y-43180000D03*
X93980000Y-63500000D03*
X96520000Y-63500000D03*
X96520000Y-60960000D03*
X93980000Y-60960000D03*
X96520000Y-58420000D03*
X93980000Y-58420000D03*
X93980000Y-68580000D03*
X96520000Y-68580000D03*
X96520000Y-66040000D03*
X93980000Y-66040000D03*
X96520000Y-73660000D03*
X93980000Y-73660000D03*
X142240000Y-73660000D03*
X139700000Y-73660000D03*
X142240000Y-66040000D03*
X139700000Y-66040000D03*
X139700000Y-68580000D03*
X142240000Y-68580000D03*
X142240000Y-58420000D03*
X139700000Y-58420000D03*
X142240000Y-60960000D03*
X139700000Y-60960000D03*
X139700000Y-63500000D03*
X142240000Y-63500000D03*
X142240000Y-43180000D03*
X139700000Y-43180000D03*
X142240000Y-48260000D03*
X139700000Y-48260000D03*
X139700000Y-45720000D03*
X142240000Y-45720000D03*
X142240000Y-50800000D03*
X139700000Y-50800000D03*
X139700000Y-53340000D03*
X142240000Y-53340000D03*
X142240000Y-93980000D03*
X139700000Y-93980000D03*
X139700000Y-91440000D03*
X142240000Y-91440000D03*
X139700000Y-88900000D03*
X142240000Y-88900000D03*
X142240000Y-78740000D03*
X139700000Y-78740000D03*
X139700000Y-76200000D03*
X142240000Y-76200000D03*
X142240000Y-81280000D03*
X139700000Y-81280000D03*
X139700000Y-83820000D03*
X142240000Y-83820000D03*
X142240000Y-104140000D03*
X139700000Y-104140000D03*
X142240000Y-96520000D03*
X139700000Y-96520000D03*
X139700000Y-99060000D03*
X142240000Y-99060000D03*
X142240000Y-109220000D03*
X139700000Y-109220000D03*
X139700000Y-106680000D03*
X142240000Y-106680000D03*
X142240000Y-111760000D03*
X139700000Y-111760000D03*
X139700000Y-114300000D03*
X142240000Y-114300000D03*
M02*
