M48
INCH,TZ
T1C0.040
%
G90
G05
T1
X037000Y-017500
X037000Y-018500
X037000Y-019500
X037000Y-020500
X037000Y-021500
X037000Y-023500
X037000Y-024500
X037000Y-025500
X037000Y-026500
X037000Y-027500
X037000Y-029500
X037000Y-030500
X037000Y-031500
X037000Y-032500
X037000Y-033500
X037000Y-035500
X037000Y-036500
X037000Y-037500
X037000Y-038500
X037000Y-039500
X037000Y-041500
X037000Y-042500
X037000Y-043500
X037000Y-044500
X037000Y-045500
X038000Y-017500
X038000Y-018500
X038000Y-019500
X038000Y-020500
X038000Y-021500
X038000Y-023500
X038000Y-024500
X038000Y-025500
X038000Y-026500
X038000Y-027500
X038000Y-029500
X038000Y-030500
X038000Y-031500
X038000Y-032500
X038000Y-033500
X038000Y-035500
X038000Y-036500
X038000Y-037500
X038000Y-038500
X038000Y-039500
X038000Y-041500
X038000Y-042500
X038000Y-043500
X038000Y-044500
X038000Y-045500
X041000Y-017000
X041000Y-018000
X041000Y-019000
X041000Y-020000
X041000Y-021000
X041000Y-022000
X041000Y-023000
X041000Y-024000
X041000Y-025000
X041000Y-026000
X041000Y-027000
X041000Y-028000
X041000Y-029000
X041000Y-030000
X041000Y-031000
X041000Y-032000
X041000Y-033000
X041000Y-034000
X041000Y-035000
X041000Y-036000
X041000Y-037000
X041000Y-038000
X041000Y-039000
X041000Y-040000
X041000Y-041000
X041000Y-042000
X041000Y-043000
X041000Y-044000
X041000Y-045000
X041000Y-046000
X042000Y-017000
X042000Y-018000
X042000Y-019000
X042000Y-020000
X042000Y-021000
X042000Y-022000
X042000Y-023000
X042000Y-024000
X042000Y-025000
X042000Y-026000
X042000Y-027000
X042000Y-028000
X042000Y-029000
X042000Y-030000
X042000Y-031000
X042000Y-032000
X042000Y-033000
X042000Y-034000
X042000Y-035000
X042000Y-036000
X042000Y-037000
X042000Y-038000
X042000Y-039000
X042000Y-040000
X042000Y-041000
X042000Y-042000
X042000Y-043000
X042000Y-044000
X042000Y-045000
X042000Y-046000
X043000Y-017000
X043000Y-018000
X043000Y-019000
X043000Y-020000
X043000Y-021000
X043000Y-022000
X043000Y-023000
X043000Y-024000
X043000Y-025000
X043000Y-026000
X043000Y-027000
X043000Y-028000
X043000Y-029000
X043000Y-030000
X043000Y-031000
X043000Y-032000
X043000Y-033000
X043000Y-034000
X043000Y-035000
X043000Y-036000
X043000Y-037000
X043000Y-038000
X043000Y-039000
X043000Y-040000
X043000Y-041000
X043000Y-042000
X043000Y-043000
X043000Y-044000
X043000Y-045000
X043000Y-046000
X044000Y-017000
X044000Y-018000
X044000Y-019000
X044000Y-020000
X044000Y-021000
X044000Y-022000
X044000Y-023000
X044000Y-024000
X044000Y-025000
X044000Y-026000
X044000Y-027000
X044000Y-028000
X044000Y-029000
X044000Y-030000
X044000Y-031000
X044000Y-032000
X044000Y-033000
X044000Y-034000
X044000Y-035000
X044000Y-036000
X044000Y-037000
X044000Y-038000
X044000Y-039000
X044000Y-040000
X044000Y-041000
X044000Y-042000
X044000Y-043000
X044000Y-044000
X044000Y-045000
X044000Y-046000
X045000Y-017000
X045000Y-018000
X045000Y-019000
X045000Y-020000
X045000Y-021000
X045000Y-022000
X045000Y-023000
X045000Y-024000
X045000Y-025000
X045000Y-026000
X045000Y-027000
X045000Y-028000
X045000Y-029000
X045000Y-030000
X045000Y-031000
X045000Y-032000
X045000Y-033000
X045000Y-034000
X045000Y-035000
X045000Y-036000
X045000Y-037000
X045000Y-038000
X045000Y-039000
X045000Y-040000
X045000Y-041000
X045000Y-042000
X045000Y-043000
X045000Y-044000
X045000Y-045000
X045000Y-046000
X048000Y-017000
X048000Y-018000
X048000Y-019000
X048000Y-020000
X048000Y-021000
X048000Y-022000
X048000Y-023000
X048000Y-024000
X048000Y-025000
X048000Y-026000
X048000Y-027000
X048000Y-028000
X048000Y-029000
X048000Y-030000
X048000Y-031000
X048000Y-032000
X048000Y-033000
X048000Y-034000
X048000Y-035000
X048000Y-036000
X048000Y-037000
X048000Y-038000
X048000Y-039000
X048000Y-040000
X048000Y-041000
X048000Y-042000
X048000Y-043000
X048000Y-044000
X048000Y-045000
X048000Y-046000
X049000Y-017000
X049000Y-018000
X049000Y-019000
X049000Y-020000
X049000Y-021000
X049000Y-022000
X049000Y-023000
X049000Y-024000
X049000Y-025000
X049000Y-026000
X049000Y-027000
X049000Y-028000
X049000Y-029000
X049000Y-030000
X049000Y-031000
X049000Y-032000
X049000Y-033000
X049000Y-034000
X049000Y-035000
X049000Y-036000
X049000Y-037000
X049000Y-038000
X049000Y-039000
X049000Y-040000
X049000Y-041000
X049000Y-042000
X049000Y-043000
X049000Y-044000
X049000Y-045000
X049000Y-046000
X050000Y-017000
X050000Y-018000
X050000Y-019000
X050000Y-020000
X050000Y-021000
X050000Y-022000
X050000Y-023000
X050000Y-024000
X050000Y-025000
X050000Y-026000
X050000Y-027000
X050000Y-028000
X050000Y-029000
X050000Y-030000
X050000Y-031000
X050000Y-032000
X050000Y-033000
X050000Y-034000
X050000Y-035000
X050000Y-036000
X050000Y-037000
X050000Y-038000
X050000Y-039000
X050000Y-040000
X050000Y-041000
X050000Y-042000
X050000Y-043000
X050000Y-044000
X050000Y-045000
X050000Y-046000
X051000Y-017000
X051000Y-018000
X051000Y-019000
X051000Y-020000
X051000Y-021000
X051000Y-022000
X051000Y-023000
X051000Y-024000
X051000Y-025000
X051000Y-026000
X051000Y-027000
X051000Y-028000
X051000Y-029000
X051000Y-030000
X051000Y-031000
X051000Y-032000
X051000Y-033000
X051000Y-034000
X051000Y-035000
X051000Y-036000
X051000Y-037000
X051000Y-038000
X051000Y-039000
X051000Y-040000
X051000Y-041000
X051000Y-042000
X051000Y-043000
X051000Y-044000
X051000Y-045000
X051000Y-046000
X052000Y-017000
X052000Y-018000
X052000Y-019000
X052000Y-020000
X052000Y-021000
X052000Y-022000
X052000Y-023000
X052000Y-024000
X052000Y-025000
X052000Y-026000
X052000Y-027000
X052000Y-028000
X052000Y-029000
X052000Y-030000
X052000Y-031000
X052000Y-032000
X052000Y-033000
X052000Y-034000
X052000Y-035000
X052000Y-036000
X052000Y-037000
X052000Y-038000
X052000Y-039000
X052000Y-040000
X052000Y-041000
X052000Y-042000
X052000Y-043000
X052000Y-044000
X052000Y-045000
X052000Y-046000
X055000Y-017500
X055000Y-018500
X055000Y-019500
X055000Y-020500
X055000Y-021500
X055000Y-023500
X055000Y-024500
X055000Y-025500
X055000Y-026500
X055000Y-027500
X055000Y-029500
X055000Y-030500
X055000Y-031500
X055000Y-032500
X055000Y-033500
X055000Y-035500
X055000Y-036500
X055000Y-037500
X055000Y-038500
X055000Y-039500
X055000Y-041500
X055000Y-042500
X055000Y-043500
X055000Y-044500
X055000Y-045500
X056000Y-017500
X056000Y-018500
X056000Y-019500
X056000Y-020500
X056000Y-021500
X056000Y-023500
X056000Y-024500
X056000Y-025500
X056000Y-026500
X056000Y-027500
X056000Y-029500
X056000Y-030500
X056000Y-031500
X056000Y-032500
X056000Y-033500
X056000Y-035500
X056000Y-036500
X056000Y-037500
X056000Y-038500
X056000Y-039500
X056000Y-041500
X056000Y-042500
X056000Y-043500
X056000Y-044500
X056000Y-045500
T0
M30
